 solid PRO2STL version 1.0
 facet normal 0 0 1
 outer loop 
 vertex -0.06836256976 0.04384415205 0.15
 vertex -0.06873622348 0.04486604555 0.15
 vertex -0.06914794829 0.0440391883 0.15
 endloop
 endfacet
 facet normal 0 0 1
 outer loop 
 vertex -0.06914794829 0.0440391883 0.15
 vertex -0.06948161276 0.04317789545 0.15
 vertex -0.06836256976 0.04384415205 0.15
 endloop
 endfacet
 facet normal 0 -0 1
 outer loop 
 vertex -0.06638846828 0.04769333953 0.15
 vertex -0.06575814314 0.04698020689 0.15
 vertex -0.06565136462 0.04824997442 0.15
 endloop
 endfacet
 facet normal 0 0 1
 outer loop 
 vertex -0.06480486039 0.04756305896 0.15
 vertex -0.06565136462 0.04824997442 0.15
 vertex -0.06575814314 0.04698020689 0.15
 endloop
 endfacet
 facet normal 0 0 1
 outer loop 
 vertex -0.06565136462 0.04824997442 0.15
 vertex -0.06480486039 0.04756305896 0.15
 vertex -0.06486604554 0.04873622349 0.15
 endloop
 endfacet
 facet normal 0 0 1
 outer loop 
 vertex -0.06707106781 0.04707106781 0.15
 vertex -0.06575814314 0.04698020689 0.15
 vertex -0.06638846828 0.04769333953 0.15
 endloop
 endfacet
 facet normal 0 -0 1
 outer loop 
 vertex -0.06707106781 0.04707106781 0.15
 vertex -0.066649725 0.04618666973 0.15
 vertex -0.06575814314 0.04698020689 0.15
 endloop
 endfacet
 facet normal -0 0 1
 outer loop 
 vertex -0.06480486039 0.04756305896 0.15
 vertex -0.06575814314 0.04698020689 0.15
 vertex -0.06433895328 0.04641048152 0.15
 endloop
 endfacet
 facet normal 0 0 1
 outer loop 
 vertex -0.06550437606 0.04592372546 0.15
 vertex -0.06433895328 0.04641048152 0.15
 vertex -0.06575814314 0.04698020689 0.15
 endloop
 endfacet
 facet normal 0 0 1
 outer loop 
 vertex -0.06550437606 0.04592372546 0.15
 vertex -0.06575814314 0.04698020689 0.15
 vertex -0.066649725 0.04618666973 0.15
 endloop
 endfacet
 facet normal 0 0 1
 outer loop 
 vertex -0.066649725 0.04618666973 0.15
 vertex -0.06707106781 0.04707106781 0.15
 vertex -0.06769333951 0.0463884683 0.15
 endloop
 endfacet
 facet normal 0 0 1
 outer loop 
 vertex -0.06403918829 0.04914794829 0.15
 vertex -0.06286938499 0.04871312366 0.15
 vertex -0.06317789546 0.04948161276 0.15
 endloop
 endfacet
 facet normal 0 -0 1
 outer loop 
 vertex -0.06317789546 0.04948161276 0.15
 vertex -0.06286938499 0.04871312366 0.15
 vertex -0.06228950241 0.04973438127 0.15
 endloop
 endfacet
 facet normal 0 -0 1
 outer loop 
 vertex -0.06403918829 0.04914794829 0.15
 vertex -0.06381472394 0.04815009507 0.15
 vertex -0.06286938499 0.04871312366 0.15
 endloop
 endfacet
 facet normal 0 0 1
 outer loop 
 vertex -0.06381472394 0.04815009507 0.15
 vertex -0.06239937674 0.04783307582 0.15
 vertex -0.06286938499 0.04871312366 0.15
 endloop
 endfacet
 facet normal 0 0 1
 outer loop 
 vertex -0.06239937674 0.04783307582 0.15
 vertex -0.06166710683 0.04871215483 0.15
 vertex -0.06286938499 0.04871312366 0.15
 endloop
 endfacet
 facet normal 0 0 1
 outer loop 
 vertex -0.06166710683 0.04871215483 0.15
 vertex -0.06228950241 0.04973438127 0.15
 vertex -0.06286938499 0.04871312366 0.15
 endloop
 endfacet
 facet normal 0 0 1
 outer loop 
 vertex -0.06486604554 0.04873622349 0.15
 vertex -0.06381472394 0.04815009507 0.15
 vertex -0.06403918829 0.04914794829 0.15
 endloop
 endfacet
 facet normal 0 0 1
 outer loop 
 vertex -0.06480486039 0.04756305896 0.15
 vertex -0.06381472394 0.04815009507 0.15
 vertex -0.06486604554 0.04873622349 0.15
 endloop
 endfacet
 facet normal 0 0 1
 outer loop 
 vertex -0.06349853637 0.04705596601 0.15
 vertex -0.06381472394 0.04815009507 0.15
 vertex -0.06480486039 0.04756305896 0.15
 endloop
 endfacet
 facet normal 0 0 1
 outer loop 
 vertex -0.06349853637 0.04705596601 0.15
 vertex -0.06480486039 0.04756305896 0.15
 vertex -0.06433895328 0.04641048152 0.15
 endloop
 endfacet
 facet normal 0 0 1
 outer loop 
 vertex -0.06349853637 0.04705596601 0.15
 vertex -0.06239937674 0.04783307582 0.15
 vertex -0.06381472394 0.04815009507 0.15
 endloop
 endfacet
 facet normal 0 0 1
 outer loop 
 vertex -0.06433895328 0.04641048152 0.15
 vertex -0.06292822424 0.04510923603 0.15
 vertex -0.06349853637 0.04705596601 0.15
 endloop
 endfacet
 facet normal 0 0 1
 outer loop 
 vertex -0.06244044759 0.04649886361 0.15
 vertex -0.06349853637 0.04705596601 0.15
 vertex -0.06292822424 0.04510923603 0.15
 endloop
 endfacet
 facet normal -0 0 1
 outer loop 
 vertex -0.06239937674 0.04783307582 0.15
 vertex -0.06349853637 0.04705596601 0.15
 vertex -0.06244044759 0.04649886361 0.15
 endloop
 endfacet
 facet normal -0 0 1
 outer loop 
 vertex -0.06433895328 0.04641048152 0.15
 vertex -0.06550437606 0.04592372546 0.15
 vertex -0.06430634734 0.04521717794 0.15
 endloop
 endfacet
 facet normal 0 0 1
 outer loop 
 vertex -0.06292822424 0.04510923603 0.15
 vertex -0.06433895328 0.04641048152 0.15
 vertex -0.06430634734 0.04521717794 0.15
 endloop
 endfacet
 facet normal 0 0 1
 outer loop 
 vertex -0.06515936793 0.04442427031 0.15
 vertex -0.06430634734 0.04521717794 0.15
 vertex -0.06550437606 0.04592372546 0.15
 endloop
 endfacet
 facet normal 0 0 1
 outer loop 
 vertex -0.06638676511 0.04511193871 0.15
 vertex -0.06515936793 0.04442427031 0.15
 vertex -0.06550437606 0.04592372546 0.15
 endloop
 endfacet
 facet normal 0 0 1
 outer loop 
 vertex -0.06638676511 0.04511193871 0.15
 vertex -0.06550437606 0.04592372546 0.15
 vertex -0.066649725 0.04618666973 0.15
 endloop
 endfacet
 facet normal 0 0 1
 outer loop 
 vertex -0.06515936793 0.04442427031 0.15
 vertex -0.06361645434 0.04354427557 0.15
 vertex -0.06430634734 0.04521717794 0.15
 endloop
 endfacet
 facet normal 0 -0 1
 outer loop 
 vertex -0.06638676511 0.04511193871 0.15
 vertex -0.06622520718 0.04387459202 0.15
 vertex -0.06515936793 0.04442427031 0.15
 endloop
 endfacet
 facet normal 0 0 1
 outer loop 
 vertex -0.06622520718 0.04387459202 0.15
 vertex -0.06493769264 0.04275182582 0.15
 vertex -0.06515936793 0.04442427031 0.15
 endloop
 endfacet
 facet normal 0 0 1
 outer loop 
 vertex -0.06361645434 0.04354427557 0.15
 vertex -0.06515936793 0.04442427031 0.15
 vertex -0.06493769264 0.04275182582 0.15
 endloop
 endfacet
 facet normal 0 0 1
 outer loop 
 vertex -0.06361645434 0.04354427557 0.15
 vertex -0.06292822424 0.04510923603 0.15
 vertex -0.06430634734 0.04521717794 0.15
 endloop
 endfacet
 facet normal 0 0 1
 outer loop 
 vertex -0.06361645434 0.04354427557 0.15
 vertex -0.06188058955 0.04315150875 0.15
 vertex -0.06292822424 0.04510923603 0.15
 endloop
 endfacet
 facet normal -0 0 1
 outer loop 
 vertex -0.06137873233 0.04527752163 0.15
 vertex -0.06292822424 0.04510923603 0.15
 vertex -0.06188058955 0.04315150875 0.15
 endloop
 endfacet
 facet normal 0 0 1
 outer loop 
 vertex -0.06137873233 0.04527752163 0.15
 vertex -0.06244044759 0.04649886361 0.15
 vertex -0.06292822424 0.04510923603 0.15
 endloop
 endfacet
 facet normal -0 0 1
 outer loop 
 vertex -0.06769333951 0.0463884683 0.15
 vertex -0.0682499744 0.04565136465 0.15
 vertex -0.06744952059 0.04559971245 0.15
 endloop
 endfacet
 facet normal 0 -0 1
 outer loop 
 vertex -0.0682499744 0.04565136465 0.15
 vertex -0.06749619283 0.04470228628 0.15
 vertex -0.06744952059 0.04559971245 0.15
 endloop
 endfacet
 facet normal 0 0 1
 outer loop 
 vertex -0.066649725 0.04618666973 0.15
 vertex -0.06769333951 0.0463884683 0.15
 vertex -0.06744952059 0.04559971245 0.15
 endloop
 endfacet
 facet normal -0 0 1
 outer loop 
 vertex -0.066649725 0.04618666973 0.15
 vertex -0.06744952059 0.04559971245 0.15
 vertex -0.06638676511 0.04511193871 0.15
 endloop
 endfacet
 facet normal 0 0 1
 outer loop 
 vertex -0.06749619283 0.04470228628 0.15
 vertex -0.06638676511 0.04511193871 0.15
 vertex -0.06744952059 0.04559971245 0.15
 endloop
 endfacet
 facet normal 0 0 1
 outer loop 
 vertex -0.06749619283 0.04470228628 0.15
 vertex -0.0682499744 0.04565136465 0.15
 vertex -0.06873622348 0.04486604555 0.15
 endloop
 endfacet
 facet normal -0 0 1
 outer loop 
 vertex -0.06638676511 0.04511193871 0.15
 vertex -0.06749619283 0.04470228628 0.15
 vertex -0.06622520718 0.04387459202 0.15
 endloop
 endfacet
 facet normal 0 0 1
 outer loop 
 vertex -0.06743525186 0.04352077437 0.15
 vertex -0.06622520718 0.04387459202 0.15
 vertex -0.06749619283 0.04470228628 0.15
 endloop
 endfacet
 facet normal -0 0 1
 outer loop 
 vertex -0.06622520718 0.04387459202 0.15
 vertex -0.06743525186 0.04352077437 0.15
 vertex -0.06653252766 0.04262841287 0.15
 endloop
 endfacet
 facet normal 0 0 1
 outer loop 
 vertex -0.06622520718 0.04387459202 0.15
 vertex -0.06653252766 0.04262841287 0.15
 vertex -0.06493769264 0.04275182582 0.15
 endloop
 endfacet
 facet normal 0 0 1
 outer loop 
 vertex -0.06749619283 0.04470228628 0.15
 vertex -0.06873622348 0.04486604555 0.15
 vertex -0.06836256976 0.04384415205 0.15
 endloop
 endfacet
 facet normal 0 0 1
 outer loop 
 vertex -0.06743525186 0.04352077437 0.15
 vertex -0.06749619283 0.04470228628 0.15
 vertex -0.06836256976 0.04384415205 0.15
 endloop
 endfacet
 facet normal 0 0 1
 outer loop 
 vertex -0.06851522114 0.04274322865 0.15
 vertex -0.06743525186 0.04352077437 0.15
 vertex -0.06836256976 0.04384415205 0.15
 endloop
 endfacet
 facet normal 0 0 1
 outer loop 
 vertex -0.06851522114 0.04274322865 0.15
 vertex -0.06836256976 0.04384415205 0.15
 vertex -0.06948161276 0.04317789545 0.15
 endloop
 endfacet
 facet normal 0 0 1
 outer loop 
 vertex -0.06757739658 0.04199680922 0.15
 vertex -0.06743525186 0.04352077437 0.15
 vertex -0.06851522114 0.04274322865 0.15
 endloop
 endfacet
 facet normal 0 0 1
 outer loop 
 vertex -0.06757739658 0.04199680922 0.15
 vertex -0.06851522114 0.04274322865 0.15
 vertex -0.06891056892 0.04166768524 0.15
 endloop
 endfacet
 facet normal 0 0 1
 outer loop 
 vertex -0.06891056892 0.04166768524 0.15
 vertex -0.06851522114 0.04274322865 0.15
 vertex -0.06973438127 0.0422895024 0.15
 endloop
 endfacet
 facet normal 0 0 1
 outer loop 
 vertex -0.06948161276 0.04317789545 0.15
 vertex -0.06973438127 0.0422895024 0.15
 vertex -0.06851522114 0.04274322865 0.15
 endloop
 endfacet
 facet normal 0 0 1
 outer loop 
 vertex -0.06743525186 0.04352077437 0.15
 vertex -0.06757739658 0.04199680922 0.15
 vertex -0.06653252766 0.04262841287 0.15
 endloop
 endfacet
 facet normal -0 0 1
 outer loop 
 vertex -0.06653252766 0.04262841287 0.15
 vertex -0.06757739658 0.04199680922 0.15
 vertex -0.06571959628 0.04144125987 0.15
 endloop
 endfacet
 facet normal -0 0 1
 outer loop 
 vertex -0.06493769264 0.04275182582 0.15
 vertex -0.06653252766 0.04262841287 0.15
 vertex -0.06571959628 0.04144125987 0.15
 endloop
 endfacet
 facet normal 0 0 1
 outer loop 
 vertex -0.06701449349 0.04062294397 0.15
 vertex -0.06571959628 0.04144125987 0.15
 vertex -0.06757739658 0.04199680922 0.15
 endloop
 endfacet
 facet normal -0 0 1
 outer loop 
 vertex -0.06493769264 0.04275182582 0.15
 vertex -0.06571959628 0.04144125987 0.15
 vertex -0.0636615613 0.04130802776 0.15
 endloop
 endfacet
 facet normal 0 -0 1
 outer loop 
 vertex -0.06571959628 0.04144125987 0.15
 vertex -0.06559234397 0.03996819823 0.15
 vertex -0.0636615613 0.04130802776 0.15
 endloop
 endfacet
 facet normal 0 0 1
 outer loop 
 vertex -0.06701449349 0.04062294397 0.15
 vertex -0.06559234397 0.03996819823 0.15
 vertex -0.06571959628 0.04144125987 0.15
 endloop
 endfacet
 facet normal 0 0 1
 outer loop 
 vertex -0.06701449349 0.04062294397 0.15
 vertex -0.06757739658 0.04199680922 0.15
 vertex -0.06823615253 0.04091901949 0.15
 endloop
 endfacet
 facet normal 0 0 1
 outer loop 
 vertex -0.06823615253 0.04091901949 0.15
 vertex -0.06757739658 0.04199680922 0.15
 vertex -0.06891056892 0.04166768524 0.15
 endloop
 endfacet
 facet normal 0 0 1
 outer loop 
 vertex -0.06811467466 0.0397744067 0.15
 vertex -0.06701449349 0.04062294397 0.15
 vertex -0.06823615253 0.04091901949 0.15
 endloop
 endfacet
 facet normal 0 0 1
 outer loop 
 vertex -0.06811467466 0.0397744067 0.15
 vertex -0.06823615253 0.04091901949 0.15
 vertex -0.06914897546 0.04028808665 0.15
 endloop
 endfacet
 facet normal 0 0 1
 outer loop 
 vertex -0.06914897546 0.04028808665 0.15
 vertex -0.06823615253 0.04091901949 0.15
 vertex -0.06891056892 0.04166768524 0.15
 endloop
 endfacet
 facet normal 0 0 1
 outer loop 
 vertex -0.0636615613 0.04130802776 0.15
 vertex -0.06361645434 0.04354427557 0.15
 vertex -0.06493769264 0.04275182582 0.15
 endloop
 endfacet
 facet normal 0 0 1
 outer loop 
 vertex -0.0636615613 0.04130802776 0.15
 vertex -0.06188058955 0.04315150875 0.15
 vertex -0.06361645434 0.04354427557 0.15
 endloop
 endfacet
 facet normal 0 -0 1
 outer loop 
 vertex -0.06559234397 0.03996819823 0.15
 vertex -0.06405162314 0.03932472202 0.15
 vertex -0.0636615613 0.04130802776 0.15
 endloop
 endfacet
 facet normal 0 0 1
 outer loop 
 vertex -0.06405162314 0.03932472202 0.15
 vertex -0.06213693913 0.03883294681 0.15
 vertex -0.0636615613 0.04130802776 0.15
 endloop
 endfacet
 facet normal 0 0 1
 outer loop 
 vertex -0.06213693913 0.03883294681 0.15
 vertex -0.06160697603 0.041210015 0.15
 vertex -0.0636615613 0.04130802776 0.15
 endloop
 endfacet
 facet normal 0 0 1
 outer loop 
 vertex -0.0636615613 0.04130802776 0.15
 vertex -0.06160697603 0.041210015 0.15
 vertex -0.06188058955 0.04315150875 0.15
 endloop
 endfacet
 facet normal 0 0 1
 outer loop 
 vertex -0.0657789042 0.03835835523 0.15
 vertex -0.06405162314 0.03932472202 0.15
 vertex -0.06559234397 0.03996819823 0.15
 endloop
 endfacet
 facet normal -0 0 1
 outer loop 
 vertex -0.06405162314 0.03932472202 0.15
 vertex -0.0657789042 0.03835835523 0.15
 vertex -0.06406610596 0.03750103396 0.15
 endloop
 endfacet
 facet normal 0 0 1
 outer loop 
 vertex -0.06405162314 0.03932472202 0.15
 vertex -0.06406610596 0.03750103396 0.15
 vertex -0.06213693913 0.03883294681 0.15
 endloop
 endfacet
 facet normal 0 0 1
 outer loop 
 vertex -0.06559234397 0.03996819823 0.15
 vertex -0.06701449349 0.04062294397 0.15
 vertex -0.0670903085 0.03908913962 0.15
 endloop
 endfacet
 facet normal 0 0 1
 outer loop 
 vertex -0.0657789042 0.03835835523 0.15
 vertex -0.06559234397 0.03996819823 0.15
 vertex -0.0670903085 0.03908913962 0.15
 endloop
 endfacet
 facet normal 0 0 1
 outer loop 
 vertex -0.0657789042 0.03835835523 0.15
 vertex -0.06597928297 0.0369671685 0.15
 vertex -0.06406610596 0.03750103396 0.15
 endloop
 endfacet
 facet normal -0 0 1
 outer loop 
 vertex -0.06406610596 0.03750103396 0.15
 vertex -0.06597928297 0.0369671685 0.15
 vertex -0.06518137836 0.03581428697 0.15
 endloop
 endfacet
 facet normal -0 0 1
 outer loop 
 vertex -0.06406610596 0.03750103396 0.15
 vertex -0.06518137836 0.03581428697 0.15
 vertex -0.06367014115 0.03575610528 0.15
 endloop
 endfacet
 facet normal 0 0 1
 outer loop 
 vertex -0.06213197562 0.03657082222 0.15
 vertex -0.06406610596 0.03750103396 0.15
 vertex -0.06367014115 0.03575610528 0.15
 endloop
 endfacet
 facet normal 0 0 1
 outer loop 
 vertex -0.06406610596 0.03750103396 0.15
 vertex -0.06213197562 0.03657082222 0.15
 vertex -0.06213693913 0.03883294681 0.15
 endloop
 endfacet
 facet normal 0 -0 1
 outer loop 
 vertex -0.06811467466 0.0397744067 0.15
 vertex -0.0670903085 0.03908913962 0.15
 vertex -0.06701449349 0.04062294397 0.15
 endloop
 endfacet
 facet normal 0 0 1
 outer loop 
 vertex -0.0670903085 0.03908913962 0.15
 vertex -0.06811467466 0.0397744067 0.15
 vertex -0.06810781966 0.03845866981 0.15
 endloop
 endfacet
 facet normal 0 0 1
 outer loop 
 vertex -0.06893522301 0.0390218996 0.15
 vertex -0.06810781966 0.03845866981 0.15
 vertex -0.06811467466 0.0397744067 0.15
 endloop
 endfacet
 facet normal 0 0 1
 outer loop 
 vertex -0.06811467466 0.0397744067 0.15
 vertex -0.06914897546 0.04028808665 0.15
 vertex -0.06893522301 0.0390218996 0.15
 endloop
 endfacet
 facet normal 0 0 1
 outer loop 
 vertex -0.06737217219 0.0376948371 0.15
 vertex -0.0657789042 0.03835835523 0.15
 vertex -0.0670903085 0.03908913962 0.15
 endloop
 endfacet
 facet normal 0 0 1
 outer loop 
 vertex -0.06737217219 0.0376948371 0.15
 vertex -0.0670903085 0.03908913962 0.15
 vertex -0.06810781966 0.03845866981 0.15
 endloop
 endfacet
 facet normal 0 -0 1
 outer loop 
 vertex -0.06737217219 0.0376948371 0.15
 vertex -0.06597928297 0.0369671685 0.15
 vertex -0.0657789042 0.03835835523 0.15
 endloop
 endfacet
 facet normal 0 0 1
 outer loop 
 vertex -0.06877162283 0.03783633868 0.15
 vertex -0.06737217219 0.0376948371 0.15
 vertex -0.06810781966 0.03845866981 0.15
 endloop
 endfacet
 facet normal 0 0 1
 outer loop 
 vertex -0.06737217219 0.0376948371 0.15
 vertex -0.06877162283 0.03783633868 0.15
 vertex -0.06840960133 0.03675533363 0.15
 endloop
 endfacet
 facet normal 0 0 1
 outer loop 
 vertex -0.06597928297 0.0369671685 0.15
 vertex -0.06737217219 0.0376948371 0.15
 vertex -0.06731090554 0.03648794643 0.15
 endloop
 endfacet
 facet normal 0 0 1
 outer loop 
 vertex -0.06731090554 0.03648794643 0.15
 vertex -0.06737217219 0.0376948371 0.15
 vertex -0.06840960133 0.03675533363 0.15
 endloop
 endfacet
 facet normal 0 -0 1
 outer loop 
 vertex -0.06893522301 0.0390218996 0.15
 vertex -0.06877162283 0.03783633868 0.15
 vertex -0.06810781966 0.03845866981 0.15
 endloop
 endfacet
 facet normal 0 0 1
 outer loop 
 vertex -0.06974116148 0.03773951931 0.15
 vertex -0.06877162283 0.03783633868 0.15
 vertex -0.06990410403 0.03861843444 0.15
 endloop
 endfacet
 facet normal -0 0 1
 outer loop 
 vertex -0.06877162283 0.03783633868 0.15
 vertex -0.06974116148 0.03773951931 0.15
 vertex -0.06948160602 0.03682208443 0.15
 endloop
 endfacet
 facet normal 0 0 1
 outer loop 
 vertex -0.06877162283 0.03783633868 0.15
 vertex -0.06893522301 0.0390218996 0.15
 vertex -0.06990410403 0.03861843444 0.15
 endloop
 endfacet
 facet normal -0 0 1
 outer loop 
 vertex -0.06877162283 0.03783633868 0.15
 vertex -0.06948160602 0.03682208443 0.15
 vertex -0.06840960133 0.03675533363 0.15
 endloop
 endfacet
 facet normal 0 0 1
 outer loop 
 vertex -0.06990410403 0.03861843444 0.15
 vertex -0.06893522301 0.0390218996 0.15
 vertex -0.06998932964 0.0395381631 0.15
 endloop
 endfacet
 facet normal 0 0 1
 outer loop 
 vertex -0.06893522301 0.0390218996 0.15
 vertex -0.06914897546 0.04028808665 0.15
 vertex -0.06998932964 0.0395381631 0.15
 endloop
 endfacet
 facet normal 0 0 1
 outer loop 
 vertex -0.06998932964 0.0395381631 0.15
 vertex -0.06914897546 0.04028808665 0.15
 vertex -0.06998932987 0.04046183198 0.15
 endloop
 endfacet
 facet normal 0 0 1
 outer loop 
 vertex -0.06998932987 0.04046183198 0.15
 vertex -0.06914897546 0.04028808665 0.15
 vertex -0.06990410471 0.04138156069 0.15
 endloop
 endfacet
 facet normal -0 0 1
 outer loop 
 vertex -0.06891056892 0.04166768524 0.15
 vertex -0.06990410471 0.04138156069 0.15
 vertex -0.06914897546 0.04028808665 0.15
 endloop
 endfacet
 facet normal 0 0 1
 outer loop 
 vertex -0.06990410471 0.04138156069 0.15
 vertex -0.06891056892 0.04166768524 0.15
 vertex -0.06973438127 0.0422895024 0.15
 endloop
 endfacet
 facet normal 0 0 1
 outer loop 
 vertex -0.06840960133 0.03675533363 0.15
 vertex -0.06948160602 0.03682208443 0.15
 vertex -0.06914793822 0.03596078889 0.15
 endloop
 endfacet
 facet normal 0 0 1
 outer loop 
 vertex -0.0678662338 0.0354902249 0.15
 vertex -0.06914793822 0.03596078889 0.15
 vertex -0.06873622347 0.03513395443 0.15
 endloop
 endfacet
 facet normal -0 0 1
 outer loop 
 vertex -0.06840960133 0.03675533363 0.15
 vertex -0.06914793822 0.03596078889 0.15
 vertex -0.0678662338 0.0354902249 0.15
 endloop
 endfacet
 facet normal 0 0 1
 outer loop 
 vertex -0.06317791557 0.03051839398 0.15
 vertex -0.06292702792 0.03122954336 0.15
 vertex -0.06403921111 0.03085206178 0.15
 endloop
 endfacet
 facet normal 0 0 1
 outer loop 
 vertex -0.0636793969 0.03190957829 0.15
 vertex -0.06403921111 0.03085206178 0.15
 vertex -0.06292702792 0.03122954336 0.15
 endloop
 endfacet
 facet normal 0 0 1
 outer loop 
 vertex -0.06403921111 0.03085206178 0.15
 vertex -0.0636793969 0.03190957829 0.15
 vertex -0.06486604555 0.03126377652 0.15
 endloop
 endfacet
 facet normal 0 0 1
 outer loop 
 vertex -0.06317791557 0.03051839398 0.15
 vertex -0.06226048073 0.03025883853 0.15
 vertex -0.06292702792 0.03122954336 0.15
 endloop
 endfacet
 facet normal -0 0 1
 outer loop 
 vertex -0.06253151801 0.03214074771 0.15
 vertex -0.0636793969 0.03190957829 0.15
 vertex -0.06292702792 0.03122954336 0.15
 endloop
 endfacet
 facet normal 0 0 1
 outer loop 
 vertex -0.06198006385 0.03109218783 0.15
 vertex -0.06253151801 0.03214074771 0.15
 vertex -0.06292702792 0.03122954336 0.15
 endloop
 endfacet
 facet normal 0 0 1
 outer loop 
 vertex -0.06198006385 0.03109218783 0.15
 vertex -0.06292702792 0.03122954336 0.15
 vertex -0.06226048073 0.03025883853 0.15
 endloop
 endfacet
 facet normal 0 0 1
 outer loop 
 vertex -0.06299757711 0.03330401325 0.15
 vertex -0.0636793969 0.03190957829 0.15
 vertex -0.06253151801 0.03214074771 0.15
 endloop
 endfacet
 facet normal 0 -0 1
 outer loop 
 vertex -0.06299757711 0.03330401325 0.15
 vertex -0.06253151801 0.03214074771 0.15
 vertex -0.06161050792 0.03332945443 0.15
 endloop
 endfacet
 facet normal 0 0 1
 outer loop 
 vertex -0.06137207207 0.03203622995 0.15
 vertex -0.06161050792 0.03332945443 0.15
 vertex -0.06253151801 0.03214074771 0.15
 endloop
 endfacet
 facet normal 0 0 1
 outer loop 
 vertex -0.06137207207 0.03203622995 0.15
 vertex -0.06253151801 0.03214074771 0.15
 vertex -0.06198006385 0.03109218783 0.15
 endloop
 endfacet
 facet normal 0 0 1
 outer loop 
 vertex -0.06476832921 0.03222878349 0.15
 vertex -0.06486604555 0.03126377652 0.15
 vertex -0.0636793969 0.03190957829 0.15
 endloop
 endfacet
 facet normal 0 0 1
 outer loop 
 vertex -0.06476832921 0.03222878349 0.15
 vertex -0.0636793969 0.03190957829 0.15
 vertex -0.06410413668 0.0330352239 0.15
 endloop
 endfacet
 facet normal -0 0 1
 outer loop 
 vertex -0.06299757711 0.03330401325 0.15
 vertex -0.06410413668 0.0330352239 0.15
 vertex -0.0636793969 0.03190957829 0.15
 endloop
 endfacet
 facet normal 0 0 1
 outer loop 
 vertex -0.06486604555 0.03126377652 0.15
 vertex -0.06476832921 0.03222878349 0.15
 vertex -0.06565136463 0.03175002559 0.15
 endloop
 endfacet
 facet normal 0 0 1
 outer loop 
 vertex -0.06476832921 0.03222878349 0.15
 vertex -0.06410413668 0.0330352239 0.15
 vertex -0.06512674325 0.03344384566 0.15
 endloop
 endfacet
 facet normal -0 0 1
 outer loop 
 vertex -0.06512674325 0.03344384566 0.15
 vertex -0.06584034787 0.03283908929 0.15
 vertex -0.06476832921 0.03222878349 0.15
 endloop
 endfacet
 facet normal 0 0 1
 outer loop 
 vertex -0.06565136463 0.03175002559 0.15
 vertex -0.06476832921 0.03222878349 0.15
 vertex -0.06584034787 0.03283908929 0.15
 endloop
 endfacet
 facet normal 0 0 1
 outer loop 
 vertex -0.06410413668 0.0330352239 0.15
 vertex -0.06408868779 0.03439873988 0.15
 vertex -0.06512674325 0.03344384566 0.15
 endloop
 endfacet
 facet normal 0 0 1
 outer loop 
 vertex -0.06410413668 0.0330352239 0.15
 vertex -0.06299757711 0.03330401325 0.15
 vertex -0.06408868779 0.03439873988 0.15
 endloop
 endfacet
 facet normal 0 0 1
 outer loop 
 vertex -0.06584034787 0.03283908929 0.15
 vertex -0.06512674325 0.03344384566 0.15
 vertex -0.06645662491 0.03366886276 0.15
 endloop
 endfacet
 facet normal -0 0 1
 outer loop 
 vertex -0.06564730805 0.03449282011 0.15
 vertex -0.06645662491 0.03366886276 0.15
 vertex -0.06512674325 0.03344384566 0.15
 endloop
 endfacet
 facet normal 0 -0 1
 outer loop 
 vertex -0.06564730805 0.03449282011 0.15
 vertex -0.06512674325 0.03344384566 0.15
 vertex -0.06408868779 0.03439873988 0.15
 endloop
 endfacet
 facet normal -0 0 1
 outer loop 
 vertex -0.06218713976 0.03469111474 0.15
 vertex -0.06408868779 0.03439873988 0.15
 vertex -0.06299757711 0.03330401325 0.15
 endloop
 endfacet
 facet normal 0 0 1
 outer loop 
 vertex -0.06218713976 0.03469111474 0.15
 vertex -0.06299757711 0.03330401325 0.15
 vertex -0.06161050792 0.03332945443 0.15
 endloop
 endfacet
 facet normal 0 0 1
 outer loop 
 vertex -0.06565136463 0.03175002559 0.15
 vertex -0.06584034787 0.03283908929 0.15
 vertex -0.06638846829 0.03230666048 0.15
 endloop
 endfacet
 facet normal 0 0 1
 outer loop 
 vertex -0.06638846829 0.03230666048 0.15
 vertex -0.06584034787 0.03283908929 0.15
 vertex -0.0670710678 0.03292893218 0.15
 endloop
 endfacet
 facet normal 0 0 1
 outer loop 
 vertex -0.0670710678 0.03292893218 0.15
 vertex -0.06584034787 0.03283908929 0.15
 vertex -0.06645662491 0.03366886276 0.15
 endloop
 endfacet
 facet normal 0 0 1
 outer loop 
 vertex -0.0670710678 0.03292893218 0.15
 vertex -0.06645662491 0.03366886276 0.15
 vertex -0.06769333951 0.0336115317 0.15
 endloop
 endfacet
 facet normal 0 0 1
 outer loop 
 vertex -0.06708526038 0.03449653228 0.15
 vertex -0.06769333951 0.0336115317 0.15
 vertex -0.06645662491 0.03366886276 0.15
 endloop
 endfacet
 facet normal 0 0 1
 outer loop 
 vertex -0.06564730805 0.03449282011 0.15
 vertex -0.06708526038 0.03449653228 0.15
 vertex -0.06645662491 0.03366886276 0.15
 endloop
 endfacet
 facet normal -0 0 1
 outer loop 
 vertex -0.06708526038 0.03449653228 0.15
 vertex -0.06824997442 0.03434863538 0.15
 vertex -0.06769333951 0.0336115317 0.15
 endloop
 endfacet
 facet normal -0 0 1
 outer loop 
 vertex -0.0678662338 0.0354902249 0.15
 vertex -0.06873622347 0.03513395443 0.15
 vertex -0.06824997442 0.03434863538 0.15
 endloop
 endfacet
 facet normal 0 0 1
 outer loop 
 vertex -0.0678662338 0.0354902249 0.15
 vertex -0.06824997442 0.03434863538 0.15
 vertex -0.06708526038 0.03449653228 0.15
 endloop
 endfacet
 facet normal -0 0 1
 outer loop 
 vertex -0.06656374185 0.03550871547 0.15
 vertex -0.0678662338 0.0354902249 0.15
 vertex -0.06708526038 0.03449653228 0.15
 endloop
 endfacet
 facet normal 0 0 1
 outer loop 
 vertex -0.06656374185 0.03550871547 0.15
 vertex -0.06731090554 0.03648794643 0.15
 vertex -0.0678662338 0.0354902249 0.15
 endloop
 endfacet
 facet normal 0 0 1
 outer loop 
 vertex -0.06731090554 0.03648794643 0.15
 vertex -0.06840960133 0.03675533363 0.15
 vertex -0.0678662338 0.0354902249 0.15
 endloop
 endfacet
 facet normal 0 0 1
 outer loop 
 vertex -0.06564730805 0.03449282011 0.15
 vertex -0.06656374185 0.03550871547 0.15
 vertex -0.06708526038 0.03449653228 0.15
 endloop
 endfacet
 facet normal 0 -0 1
 outer loop 
 vertex -0.06656374185 0.03550871547 0.15
 vertex -0.06564730805 0.03449282011 0.15
 vertex -0.06518137836 0.03581428697 0.15
 endloop
 endfacet
 facet normal 0 0 1
 outer loop 
 vertex -0.06656374185 0.03550871547 0.15
 vertex -0.06597928297 0.0369671685 0.15
 vertex -0.06731090554 0.03648794643 0.15
 endloop
 endfacet
 facet normal 0 0 1
 outer loop 
 vertex -0.06597928297 0.0369671685 0.15
 vertex -0.06656374185 0.03550871547 0.15
 vertex -0.06518137836 0.03581428697 0.15
 endloop
 endfacet
 facet normal 0 0 1
 outer loop 
 vertex -0.06408868779 0.03439873988 0.15
 vertex -0.06518137836 0.03581428697 0.15
 vertex -0.06564730805 0.03449282011 0.15
 endloop
 endfacet
 facet normal 0 -0 1
 outer loop 
 vertex -0.06518137836 0.03581428697 0.15
 vertex -0.06408868779 0.03439873988 0.15
 vertex -0.06367014115 0.03575610528 0.15
 endloop
 endfacet
 facet normal 0 0 1
 outer loop 
 vertex -0.06408868779 0.03439873988 0.15
 vertex -0.06218713976 0.03469111474 0.15
 vertex -0.06367014115 0.03575610528 0.15
 endloop
 endfacet
 facet normal -0 0 1
 outer loop 
 vertex -0.06213197562 0.03657082222 0.15
 vertex -0.06367014115 0.03575610528 0.15
 vertex -0.06218713976 0.03469111474 0.15
 endloop
 endfacet
 facet normal -0 0 1
 outer loop 
 vertex -0.06032369222 0.03741574329 0.15
 vertex -0.06213197562 0.03657082222 0.15
 vertex -0.06033784896 0.03527849041 0.15
 endloop
 endfacet
 facet normal 0 -0 1
 outer loop 
 vertex -0.06213693913 0.03883294681 0.15
 vertex -0.06213197562 0.03657082222 0.15
 vertex -0.06032369222 0.03741574329 0.15
 endloop
 endfacet
 facet normal 0 0 1
 outer loop 
 vertex -0.06218713976 0.03469111474 0.15
 vertex -0.06033784896 0.03527849041 0.15
 vertex -0.06213197562 0.03657082222 0.15
 endloop
 endfacet
 facet normal 0 0 1
 outer loop 
 vertex -0.05824867743 0.03643192647 0.15
 vertex -0.06032369222 0.03741574329 0.15
 vertex -0.06033784896 0.03527849041 0.15
 endloop
 endfacet
 facet normal -0 0 1
 outer loop 
 vertex -0.05840785766 0.03836767031 0.15
 vertex -0.06032369222 0.03741574329 0.15
 vertex -0.05824867743 0.03643192647 0.15
 endloop
 endfacet
 facet normal 0 0 1
 outer loop 
 vertex -0.05840785766 0.03836767031 0.15
 vertex -0.05991411924 0.03990412531 0.15
 vertex -0.06032369222 0.03741574329 0.15
 endloop
 endfacet
 facet normal 0 -0 1
 outer loop 
 vertex -0.06213693913 0.03883294681 0.15
 vertex -0.06032369222 0.03741574329 0.15
 vertex -0.05991411924 0.03990412531 0.15
 endloop
 endfacet
 facet normal 0 -0 1
 outer loop 
 vertex -0.06218713976 0.03469111474 0.15
 vertex -0.06161050792 0.03332945443 0.15
 vertex -0.06033784896 0.03527849041 0.15
 endloop
 endfacet
 facet normal -0 0 1
 outer loop 
 vertex -0.05824867743 0.03643192647 0.15
 vertex -0.06033784896 0.03527849041 0.15
 vertex -0.05817627298 0.0347838408 0.15
 endloop
 endfacet
 facet normal 0 0 1
 outer loop 
 vertex -0.05918887618 0.03383582776 0.15
 vertex -0.05817627298 0.0347838408 0.15
 vertex -0.06033784896 0.03527849041 0.15
 endloop
 endfacet
 facet normal 0 0 1
 outer loop 
 vertex -0.06034796136 0.03331665501 0.15
 vertex -0.05918887618 0.03383582776 0.15
 vertex -0.06033784896 0.03527849041 0.15
 endloop
 endfacet
 facet normal 0 0 1
 outer loop 
 vertex -0.06034796136 0.03331665501 0.15
 vertex -0.06033784896 0.03527849041 0.15
 vertex -0.06161050792 0.03332945443 0.15
 endloop
 endfacet
 facet normal 0 0 1
 outer loop 
 vertex -0.05817627298 0.0347838408 0.15
 vertex -0.05660547845 0.03532793592 0.15
 vertex -0.05824867743 0.03643192647 0.15
 endloop
 endfacet
 facet normal -0 0 1
 outer loop 
 vertex -0.05564639727 0.03656435194 0.15
 vertex -0.05824867743 0.03643192647 0.15
 vertex -0.05660547845 0.03532793592 0.15
 endloop
 endfacet
 facet normal 0 0 1
 outer loop 
 vertex -0.05564639727 0.03656435194 0.15
 vertex -0.05659872839 0.03785396844 0.15
 vertex -0.05824867743 0.03643192647 0.15
 endloop
 endfacet
 facet normal 0 -0 1
 outer loop 
 vertex -0.05840785766 0.03836767031 0.15
 vertex -0.05824867743 0.03643192647 0.15
 vertex -0.05659872839 0.03785396844 0.15
 endloop
 endfacet
 facet normal 0 -0 1
 outer loop 
 vertex -0.05817627298 0.0347838408 0.15
 vertex -0.05669431814 0.03388406285 0.15
 vertex -0.05660547845 0.03532793592 0.15
 endloop
 endfacet
 facet normal 0 -0 1
 outer loop 
 vertex -0.05817627298 0.0347838408 0.15
 vertex -0.05798092816 0.03301297311 0.15
 vertex -0.05669431814 0.03388406285 0.15
 endloop
 endfacet
 facet normal -0 0 1
 outer loop 
 vertex -0.05817627298 0.0347838408 0.15
 vertex -0.05918887618 0.03383582776 0.15
 vertex -0.05798092816 0.03301297311 0.15
 endloop
 endfacet
 facet normal 0 0 1
 outer loop 
 vertex -0.05669431814 0.03388406285 0.15
 vertex -0.05517832263 0.03385655759 0.15
 vertex -0.05660547845 0.03532793592 0.15
 endloop
 endfacet
 facet normal 0 0 1
 outer loop 
 vertex -0.05505527127 0.03509786804 0.15
 vertex -0.05660547845 0.03532793592 0.15
 vertex -0.05517832263 0.03385655759 0.15
 endloop
 endfacet
 facet normal 0 0 1
 outer loop 
 vertex -0.05505527127 0.03509786804 0.15
 vertex -0.05564639727 0.03656435194 0.15
 vertex -0.05660547845 0.03532793592 0.15
 endloop
 endfacet
 facet normal 0 0 1
 outer loop 
 vertex -0.05695450846 0.03248291691 0.15
 vertex -0.05669431814 0.03388406285 0.15
 vertex -0.05798092816 0.03301297311 0.15
 endloop
 endfacet
 facet normal 0 0 1
 outer loop 
 vertex -0.05669431814 0.03388406285 0.15
 vertex -0.05695450846 0.03248291691 0.15
 vertex -0.05588783935 0.03283321567 0.15
 endloop
 endfacet
 facet normal 0 0 1
 outer loop 
 vertex -0.05517832263 0.03385655759 0.15
 vertex -0.05669431814 0.03388406285 0.15
 vertex -0.05588783935 0.03283321567 0.15
 endloop
 endfacet
 facet normal 0 -0 1
 outer loop 
 vertex -0.05918887618 0.03383582776 0.15
 vertex -0.05907034809 0.03225331767 0.15
 vertex -0.05798092816 0.03301297311 0.15
 endloop
 endfacet
 facet normal 0 -0 1
 outer loop 
 vertex -0.05907034809 0.03225331767 0.15
 vertex -0.0584468784 0.03123238555 0.15
 vertex -0.05798092816 0.03301297311 0.15
 endloop
 endfacet
 facet normal 0 0 1
 outer loop 
 vertex -0.05695450846 0.03248291691 0.15
 vertex -0.05798092816 0.03301297311 0.15
 vertex -0.05744586152 0.03151953591 0.15
 endloop
 endfacet
 facet normal 0 0 1
 outer loop 
 vertex -0.05744586152 0.03151953591 0.15
 vertex -0.05798092816 0.03301297311 0.15
 vertex -0.0584468784 0.03123238555 0.15
 endloop
 endfacet
 facet normal 0 0 1
 outer loop 
 vertex -0.06034796136 0.03331665501 0.15
 vertex -0.05907034809 0.03225331767 0.15
 vertex -0.05918887618 0.03383582776 0.15
 endloop
 endfacet
 facet normal 0 0 1
 outer loop 
 vertex -0.05907034809 0.03225331767 0.15
 vertex -0.06034796136 0.03331665501 0.15
 vertex -0.06023786189 0.03190322679 0.15
 endloop
 endfacet
 facet normal -0 0 1
 outer loop 
 vertex -0.05907034809 0.03225331767 0.15
 vertex -0.06023786189 0.03190322679 0.15
 vertex -0.05959100183 0.03097375882 0.15
 endloop
 endfacet
 facet normal 0 0 1
 outer loop 
 vertex -0.05907034809 0.03225331767 0.15
 vertex -0.05959100183 0.03097375882 0.15
 vertex -0.0584468784 0.03123238555 0.15
 endloop
 endfacet
 facet normal 0 0 1
 outer loop 
 vertex -0.05695450846 0.03248291691 0.15
 vertex -0.05744586152 0.03151953591 0.15
 vertex -0.05615884659 0.03169167723 0.15
 endloop
 endfacet
 facet normal 0 -0 1
 outer loop 
 vertex -0.0584468784 0.03123238555 0.15
 vertex -0.05771049759 0.03026561873 0.15
 vertex -0.05744586152 0.03151953591 0.15
 endloop
 endfacet
 facet normal 0 0 1
 outer loop 
 vertex -0.05682210454 0.03051838724 0.15
 vertex -0.05744586152 0.03151953591 0.15
 vertex -0.05771049759 0.03026561873 0.15
 endloop
 endfacet
 facet normal 0 0 1
 outer loop 
 vertex -0.05682210454 0.03051838724 0.15
 vertex -0.05615884659 0.03169167723 0.15
 vertex -0.05744586152 0.03151953591 0.15
 endloop
 endfacet
 facet normal -0 0 1
 outer loop 
 vertex -0.05588783935 0.03283321567 0.15
 vertex -0.05695450846 0.03248291691 0.15
 vertex -0.05615884659 0.03169167723 0.15
 endloop
 endfacet
 facet normal 0 0 1
 outer loop 
 vertex -0.06137207207 0.03203622995 0.15
 vertex -0.06034796136 0.03331665501 0.15
 vertex -0.06161050792 0.03332945443 0.15
 endloop
 endfacet
 facet normal -0 0 1
 outer loop 
 vertex -0.06034796136 0.03331665501 0.15
 vertex -0.06137207207 0.03203622995 0.15
 vertex -0.06023786189 0.03190322679 0.15
 endloop
 endfacet
 facet normal 0 0 1
 outer loop 
 vertex -0.06023786189 0.03190322679 0.15
 vertex -0.06137207207 0.03203622995 0.15
 vertex -0.06087864032 0.03095155827 0.15
 endloop
 endfacet
 facet normal 0 0 1
 outer loop 
 vertex -0.05959100183 0.03097375882 0.15
 vertex -0.06023786189 0.03190322679 0.15
 vertex -0.06087864032 0.03095155827 0.15
 endloop
 endfacet
 facet normal -0 0 1
 outer loop 
 vertex -0.06137207207 0.03203622995 0.15
 vertex -0.06198006385 0.03109218783 0.15
 vertex -0.06087864032 0.03095155827 0.15
 endloop
 endfacet
 facet normal -0 0 1
 outer loop 
 vertex -0.06198006385 0.03109218783 0.15
 vertex -0.06226048073 0.03025883853 0.15
 vertex -0.06138156553 0.03009589597 0.15
 endloop
 endfacet
 facet normal 0 -0 1
 outer loop 
 vertex -0.06198006385 0.03109218783 0.15
 vertex -0.06138156553 0.03009589597 0.15
 vertex -0.06087864032 0.03095155827 0.15
 endloop
 endfacet
 facet normal -0 0 1
 outer loop 
 vertex -0.06087864032 0.03095155827 0.15
 vertex -0.06138156553 0.03009589597 0.15
 vertex -0.0604618369 0.03001067036 0.15
 endloop
 endfacet
 facet normal -0 0 1
 outer loop 
 vertex -0.05959100183 0.03097375882 0.15
 vertex -0.0604618369 0.03001067036 0.15
 vertex -0.05953816804 0.03001067013 0.15
 endloop
 endfacet
 facet normal 0 0 1
 outer loop 
 vertex -0.05953816804 0.03001067013 0.15
 vertex -0.05861843931 0.03009589529 0.15
 vertex -0.05959100183 0.03097375882 0.15
 endloop
 endfacet
 facet normal 0 0 1
 outer loop 
 vertex -0.0604618369 0.03001067036 0.15
 vertex -0.05959100183 0.03097375882 0.15
 vertex -0.06087864032 0.03095155827 0.15
 endloop
 endfacet
 facet normal -0 0 1
 outer loop 
 vertex -0.0584468784 0.03123238555 0.15
 vertex -0.05959100183 0.03097375882 0.15
 vertex -0.05861843931 0.03009589529 0.15
 endloop
 endfacet
 facet normal 0 0 1
 outer loop 
 vertex -0.0584468784 0.03123238555 0.15
 vertex -0.05861843931 0.03009589529 0.15
 vertex -0.05771049759 0.03026561873 0.15
 endloop
 endfacet
 facet normal 0 0 1
 outer loop 
 vertex -0.05596081171 0.03085205171 0.15
 vertex -0.05615884659 0.03169167723 0.15
 vertex -0.05682210454 0.03051838724 0.15
 endloop
 endfacet
 facet normal 0 0 1
 outer loop 
 vertex -0.05513395446 0.03126377651 0.15
 vertex -0.05615884659 0.03169167723 0.15
 vertex -0.05596081171 0.03085205171 0.15
 endloop
 endfacet
 facet normal 0 -0 1
 outer loop 
 vertex -0.05325552555 0.03381897379 0.15
 vertex -0.05292893219 0.03292893219 0.15
 vertex -0.05230666049 0.0336115317 0.15
 endloop
 endfacet
 facet normal 0 0 1
 outer loop 
 vertex -0.05292893219 0.03292893219 0.15
 vertex -0.05410460774 0.03329960962 0.15
 vertex -0.05361153172 0.03230666047 0.15
 endloop
 endfacet
 facet normal 0 0 1
 outer loop 
 vertex -0.05410460774 0.03329960962 0.15
 vertex -0.05292893219 0.03292893219 0.15
 vertex -0.05325552555 0.03381897379 0.15
 endloop
 endfacet
 facet normal 0 0 1
 outer loop 
 vertex -0.05230666049 0.0336115317 0.15
 vertex -0.0517500256 0.03434863535 0.15
 vertex -0.0526113321 0.03436787306 0.15
 endloop
 endfacet
 facet normal 0 0 1
 outer loop 
 vertex -0.05325552555 0.03381897379 0.15
 vertex -0.05230666049 0.0336115317 0.15
 vertex -0.0526113321 0.03436787306 0.15
 endloop
 endfacet
 facet normal 0 0 1
 outer loop 
 vertex -0.0517500256 0.03434863535 0.15
 vertex -0.0519883534 0.03517888397 0.15
 vertex -0.0526113321 0.03436787306 0.15
 endloop
 endfacet
 facet normal 0 0 1
 outer loop 
 vertex -0.05325552555 0.03381897379 0.15
 vertex -0.0526113321 0.03436787306 0.15
 vertex -0.05385606019 0.03465619297 0.15
 endloop
 endfacet
 facet normal -0 0 1
 outer loop 
 vertex -0.0528172656 0.03522698162 0.15
 vertex -0.05385606019 0.03465619297 0.15
 vertex -0.0526113321 0.03436787306 0.15
 endloop
 endfacet
 facet normal 0 -0 1
 outer loop 
 vertex -0.0528172656 0.03522698162 0.15
 vertex -0.0526113321 0.03436787306 0.15
 vertex -0.0519883534 0.03517888397 0.15
 endloop
 endfacet
 facet normal 0 0 1
 outer loop 
 vertex -0.0517500256 0.03434863535 0.15
 vertex -0.05126377652 0.03513395445 0.15
 vertex -0.0519883534 0.03517888397 0.15
 endloop
 endfacet
 facet normal -0 0 1
 outer loop 
 vertex -0.05491605867 0.03248687029 0.15
 vertex -0.05615884659 0.03169167723 0.15
 vertex -0.05513395446 0.03126377651 0.15
 endloop
 endfacet
 facet normal 0 0 1
 outer loop 
 vertex -0.05588783935 0.03283321567 0.15
 vertex -0.05615884659 0.03169167723 0.15
 vertex -0.05491605867 0.03248687029 0.15
 endloop
 endfacet
 facet normal 0 0 1
 outer loop 
 vertex -0.05434863538 0.03175002558 0.15
 vertex -0.05491605867 0.03248687029 0.15
 vertex -0.05513395446 0.03126377651 0.15
 endloop
 endfacet
 facet normal 0 0 1
 outer loop 
 vertex -0.05361153172 0.03230666047 0.15
 vertex -0.05491605867 0.03248687029 0.15
 vertex -0.05434863538 0.03175002558 0.15
 endloop
 endfacet
 facet normal 0 0 1
 outer loop 
 vertex -0.05361153172 0.03230666047 0.15
 vertex -0.05410460774 0.03329960962 0.15
 vertex -0.05491605867 0.03248687029 0.15
 endloop
 endfacet
 facet normal 0 -0 1
 outer loop 
 vertex -0.05517832263 0.03385655759 0.15
 vertex -0.05491605867 0.03248687029 0.15
 vertex -0.05410460774 0.03329960962 0.15
 endloop
 endfacet
 facet normal -0 0 1
 outer loop 
 vertex -0.05517832263 0.03385655759 0.15
 vertex -0.05588783935 0.03283321567 0.15
 vertex -0.05491605867 0.03248687029 0.15
 endloop
 endfacet
 facet normal 0 0 1
 outer loop 
 vertex -0.05385606019 0.03465619297 0.15
 vertex -0.05410460774 0.03329960962 0.15
 vertex -0.05325552555 0.03381897379 0.15
 endloop
 endfacet
 facet normal -0 0 1
 outer loop 
 vertex -0.05385606019 0.03465619297 0.15
 vertex -0.05517832263 0.03385655759 0.15
 vertex -0.05410460774 0.03329960962 0.15
 endloop
 endfacet
 facet normal 0 0 1
 outer loop 
 vertex -0.05517832263 0.03385655759 0.15
 vertex -0.05385606019 0.03465619297 0.15
 vertex -0.05505527127 0.03509786804 0.15
 endloop
 endfacet
 facet normal 0 0 1
 outer loop 
 vertex -0.05385606019 0.03465619297 0.15
 vertex -0.05405605391 0.03609396958 0.15
 vertex -0.05505527127 0.03509786804 0.15
 endloop
 endfacet
 facet normal 0 0 1
 outer loop 
 vertex -0.05505527127 0.03509786804 0.15
 vertex -0.05405605391 0.03609396958 0.15
 vertex -0.05564639727 0.03656435194 0.15
 endloop
 endfacet
 facet normal 0 0 1
 outer loop 
 vertex -0.05385606019 0.03465619297 0.15
 vertex -0.0528172656 0.03522698162 0.15
 vertex -0.05405605391 0.03609396958 0.15
 endloop
 endfacet
 facet normal 0 0 1
 outer loop 
 vertex -0.05319756839 0.03703213179 0.15
 vertex -0.05405605391 0.03609396958 0.15
 vertex -0.0525546553 0.0361973016 0.15
 endloop
 endfacet
 facet normal 0 0 1
 outer loop 
 vertex -0.05319756839 0.03703213179 0.15
 vertex -0.0544886749 0.03780677506 0.15
 vertex -0.05405605391 0.03609396958 0.15
 endloop
 endfacet
 facet normal 0 0 1
 outer loop 
 vertex -0.0525546553 0.0361973016 0.15
 vertex -0.05157171797 0.03715503181 0.15
 vertex -0.05319756839 0.03703213179 0.15
 endloop
 endfacet
 facet normal 0 0 1
 outer loop 
 vertex -0.05251429318 0.03796430692 0.15
 vertex -0.05319756839 0.03703213179 0.15
 vertex -0.05157171797 0.03715503181 0.15
 endloop
 endfacet
 facet normal 0 0 1
 outer loop 
 vertex -0.05319756839 0.03703213179 0.15
 vertex -0.05251429318 0.03796430692 0.15
 vertex -0.0544886749 0.03780677506 0.15
 endloop
 endfacet
 facet normal 0 0 1
 outer loop 
 vertex -0.05405605391 0.03609396958 0.15
 vertex -0.0544886749 0.03780677506 0.15
 vertex -0.05564639727 0.03656435194 0.15
 endloop
 endfacet
 facet normal 0 0 1
 outer loop 
 vertex -0.0528172656 0.03522698162 0.15
 vertex -0.0525546553 0.0361973016 0.15
 vertex -0.05405605391 0.03609396958 0.15
 endloop
 endfacet
 facet normal 0 -0 1
 outer loop 
 vertex -0.05659872839 0.03785396844 0.15
 vertex -0.05564639727 0.03656435194 0.15
 vertex -0.0544886749 0.03780677506 0.15
 endloop
 endfacet
 facet normal 0 0 1
 outer loop 
 vertex -0.05126377652 0.03513395445 0.15
 vertex -0.05166264208 0.03606658134 0.15
 vertex -0.0519883534 0.03517888397 0.15
 endloop
 endfacet
 facet normal 0 0 1
 outer loop 
 vertex -0.05126377652 0.03513395445 0.15
 vertex -0.05085205171 0.0359608117 0.15
 vertex -0.05166264208 0.03606658134 0.15
 endloop
 endfacet
 facet normal 0 0 1
 outer loop 
 vertex -0.0528172656 0.03522698162 0.15
 vertex -0.0519883534 0.03517888397 0.15
 vertex -0.0525546553 0.0361973016 0.15
 endloop
 endfacet
 facet normal 0 0 1
 outer loop 
 vertex -0.05166264208 0.03606658134 0.15
 vertex -0.0525546553 0.0361973016 0.15
 vertex -0.0519883534 0.03517888397 0.15
 endloop
 endfacet
 facet normal -0 0 1
 outer loop 
 vertex -0.05157171797 0.03715503181 0.15
 vertex -0.0525546553 0.0361973016 0.15
 vertex -0.05166264208 0.03606658134 0.15
 endloop
 endfacet
 facet normal 0 0 1
 outer loop 
 vertex -0.05085205171 0.0359608117 0.15
 vertex -0.05157171797 0.03715503181 0.15
 vertex -0.05166264208 0.03606658134 0.15
 endloop
 endfacet
 facet normal 0 -0 1
 outer loop 
 vertex -0.05157171797 0.03715503181 0.15
 vertex -0.05085205171 0.0359608117 0.15
 vertex -0.05051838724 0.03682210455 0.15
 endloop
 endfacet
 facet normal 0 0 1
 outer loop 
 vertex -0.05051838724 0.03682210455 0.15
 vertex -0.05026561873 0.0377104976 0.15
 vertex -0.05157171797 0.03715503181 0.15
 endloop
 endfacet
 facet normal 0 0 1
 outer loop 
 vertex -0.05116848241 0.0383175919 0.15
 vertex -0.05157171797 0.03715503181 0.15
 vertex -0.05026561873 0.0377104976 0.15
 endloop
 endfacet
 facet normal 0 -0 1
 outer loop 
 vertex -0.05251429318 0.03796430692 0.15
 vertex -0.05157171797 0.03715503181 0.15
 vertex -0.05116848241 0.0383175919 0.15
 endloop
 endfacet
 facet normal -0 0 1
 outer loop 
 vertex -0.05009589529 0.03861843931 0.15
 vertex -0.05116848241 0.0383175919 0.15
 vertex -0.05026561873 0.0377104976 0.15
 endloop
 endfacet
 facet normal 0 0 1
 outer loop 
 vertex -0.05116848241 0.0383175919 0.15
 vertex -0.05009589529 0.03861843931 0.15
 vertex -0.05094763269 0.03963950354 0.15
 endloop
 endfacet
 facet normal 0 0 1
 outer loop 
 vertex -0.05208101368 0.03912613414 0.15
 vertex -0.05251429318 0.03796430692 0.15
 vertex -0.05116848241 0.0383175919 0.15
 endloop
 endfacet
 facet normal 0 -0 1
 outer loop 
 vertex -0.05208101368 0.03912613414 0.15
 vertex -0.05116848241 0.0383175919 0.15
 vertex -0.05094763269 0.03963950354 0.15
 endloop
 endfacet
 facet normal 0 0 1
 outer loop 
 vertex -0.05001067013 0.03953816802 0.15
 vertex -0.05094763269 0.03963950354 0.15
 vertex -0.05009589529 0.03861843931 0.15
 endloop
 endfacet
 facet normal 0 -0 1
 outer loop 
 vertex -0.05361623152 0.03906662327 0.15
 vertex -0.05251429318 0.03796430692 0.15
 vertex -0.05208101368 0.03912613414 0.15
 endloop
 endfacet
 facet normal 0 0 1
 outer loop 
 vertex -0.05361623152 0.03906662327 0.15
 vertex -0.0544886749 0.03780677506 0.15
 vertex -0.05251429318 0.03796430692 0.15
 endloop
 endfacet
 facet normal 0 0 1
 outer loop 
 vertex -0.05190486584 0.04031892322 0.15
 vertex -0.05208101368 0.03912613414 0.15
 vertex -0.05094763269 0.03963950354 0.15
 endloop
 endfacet
 facet normal 0 0 1
 outer loop 
 vertex -0.05190486584 0.04031892322 0.15
 vertex -0.05317821085 0.04036686861 0.15
 vertex -0.05208101368 0.03912613414 0.15
 endloop
 endfacet
 facet normal 0 0 1
 outer loop 
 vertex -0.05361623152 0.03906662327 0.15
 vertex -0.05208101368 0.03912613414 0.15
 vertex -0.05317821085 0.04036686861 0.15
 endloop
 endfacet
 facet normal 0 0 1
 outer loop 
 vertex -0.05190486584 0.04031892322 0.15
 vertex -0.05094763269 0.03963950354 0.15
 vertex -0.05096761812 0.04102649891 0.15
 endloop
 endfacet
 facet normal 0 -0 1
 outer loop 
 vertex -0.0520702401 0.04151838727 0.15
 vertex -0.05190486584 0.04031892322 0.15
 vertex -0.05096761812 0.04102649891 0.15
 endloop
 endfacet
 facet normal 0 0 1
 outer loop 
 vertex -0.05190486584 0.04031892322 0.15
 vertex -0.0520702401 0.04151838727 0.15
 vertex -0.05317821085 0.04036686861 0.15
 endloop
 endfacet
 facet normal -0 0 1
 outer loop 
 vertex -0.05001067036 0.0404618369 0.15
 vertex -0.05094763269 0.03963950354 0.15
 vertex -0.05001067013 0.03953816802 0.15
 endloop
 endfacet
 facet normal 0 -0 1
 outer loop 
 vertex -0.05096761812 0.04102649891 0.15
 vertex -0.05094763269 0.03963950354 0.15
 vertex -0.05001067036 0.0404618369 0.15
 endloop
 endfacet
 facet normal -0 0 1
 outer loop 
 vertex -0.05009589597 0.04138156556 0.15
 vertex -0.05096761812 0.04102649891 0.15
 vertex -0.05001067036 0.0404618369 0.15
 endloop
 endfacet
 facet normal 0 0 1
 outer loop 
 vertex -0.05025883852 0.04226048069 0.15
 vertex -0.05096761812 0.04102649891 0.15
 vertex -0.05009589597 0.04138156556 0.15
 endloop
 endfacet
 facet normal -0 0 1
 outer loop 
 vertex -0.05119248726 0.04228159725 0.15
 vertex -0.0520702401 0.04151838727 0.15
 vertex -0.05096761812 0.04102649891 0.15
 endloop
 endfacet
 facet normal 0 -0 1
 outer loop 
 vertex -0.05119248726 0.04228159725 0.15
 vertex -0.05096761812 0.04102649891 0.15
 vertex -0.05025883852 0.04226048069 0.15
 endloop
 endfacet
 facet normal 0 -0 1
 outer loop 
 vertex -0.05227392878 0.04272464155 0.15
 vertex -0.0520702401 0.04151838727 0.15
 vertex -0.05119248726 0.04228159725 0.15
 endloop
 endfacet
 facet normal -0 0 1
 outer loop 
 vertex -0.05227392878 0.04272464155 0.15
 vertex -0.0533978776 0.04170998986 0.15
 vertex -0.0520702401 0.04151838727 0.15
 endloop
 endfacet
 facet normal 0 -0 1
 outer loop 
 vertex -0.0533978776 0.04170998986 0.15
 vertex -0.05317821085 0.04036686861 0.15
 vertex -0.0520702401 0.04151838727 0.15
 endloop
 endfacet
 facet normal 0 0 1
 outer loop 
 vertex -0.05227392878 0.04272464155 0.15
 vertex -0.05119248726 0.04228159725 0.15
 vertex -0.0516110658 0.04348338911 0.15
 endloop
 endfacet
 facet normal 0 -0 1
 outer loop 
 vertex -0.05281019637 0.04411327634 0.15
 vertex -0.05227392878 0.04272464155 0.15
 vertex -0.0516110658 0.04348338911 0.15
 endloop
 endfacet
 facet normal 0 0 1
 outer loop 
 vertex -0.0533978776 0.04170998986 0.15
 vertex -0.05227392878 0.04272464155 0.15
 vertex -0.05335252301 0.04310718716 0.15
 endloop
 endfacet
 facet normal 0 0 1
 outer loop 
 vertex -0.05227392878 0.04272464155 0.15
 vertex -0.05281019637 0.04411327634 0.15
 vertex -0.05335252301 0.04310718716 0.15
 endloop
 endfacet
 facet normal 0 0 1
 outer loop 
 vertex -0.05119248726 0.04228159725 0.15
 vertex -0.05051839398 0.04317791557 0.15
 vertex -0.0516110658 0.04348338911 0.15
 endloop
 endfacet
 facet normal 0 0 1
 outer loop 
 vertex -0.0516110658 0.04348338911 0.15
 vertex -0.05051839398 0.04317791557 0.15
 vertex -0.05085206178 0.04403921111 0.15
 endloop
 endfacet
 facet normal 0 0 1
 outer loop 
 vertex -0.0516110658 0.04348338911 0.15
 vertex -0.05085206178 0.04403921111 0.15
 vertex -0.05195431975 0.04449375116 0.15
 endloop
 endfacet
 facet normal 0 0 1
 outer loop 
 vertex -0.05281019637 0.04411327634 0.15
 vertex -0.0516110658 0.04348338911 0.15
 vertex -0.05195431975 0.04449375116 0.15
 endloop
 endfacet
 facet normal 0 0 1
 outer loop 
 vertex -0.05119248726 0.04228159725 0.15
 vertex -0.05025883852 0.04226048069 0.15
 vertex -0.05051839398 0.04317791557 0.15
 endloop
 endfacet
 facet normal 0 0 1
 outer loop 
 vertex -0.05568011737 0.04361658103 0.15
 vertex -0.05614112008 0.04177260165 0.15
 vertex -0.05462309378 0.04254234249 0.15
 endloop
 endfacet
 facet normal -0 0 1
 outer loop 
 vertex -0.05427753106 0.04420243107 0.15
 vertex -0.05568011737 0.04361658103 0.15
 vertex -0.05462309378 0.04254234249 0.15
 endloop
 endfacet
 facet normal 0 -0 1
 outer loop 
 vertex -0.05741307584 0.04301034369 0.15
 vertex -0.05614112008 0.04177260165 0.15
 vertex -0.05568011737 0.04361658103 0.15
 endloop
 endfacet
 facet normal 0 0 1
 outer loop 
 vertex -0.05623144271 0.04489122083 0.15
 vertex -0.05741307584 0.04301034369 0.15
 vertex -0.05568011737 0.04361658103 0.15
 endloop
 endfacet
 facet normal 0 0 1
 outer loop 
 vertex -0.05427753106 0.04420243107 0.15
 vertex -0.05623144271 0.04489122083 0.15
 vertex -0.05568011737 0.04361658103 0.15
 endloop
 endfacet
 facet normal 0 -0 1
 outer loop 
 vertex -0.05462309378 0.04254234249 0.15
 vertex -0.0533978776 0.04170998986 0.15
 vertex -0.05335252301 0.04310718716 0.15
 endloop
 endfacet
 facet normal 0 0 1
 outer loop 
 vertex -0.05462309378 0.04254234249 0.15
 vertex -0.05335252301 0.04310718716 0.15
 vertex -0.05427753106 0.04420243107 0.15
 endloop
 endfacet
 facet normal 0 0 1
 outer loop 
 vertex -0.05281019637 0.04411327634 0.15
 vertex -0.05427753106 0.04420243107 0.15
 vertex -0.05335252301 0.04310718716 0.15
 endloop
 endfacet
 facet normal 0 0 1
 outer loop 
 vertex -0.0533978776 0.04170998986 0.15
 vertex -0.05462309378 0.04254234249 0.15
 vertex -0.05478309044 0.04065735142 0.15
 endloop
 endfacet
 facet normal 0 -0 1
 outer loop 
 vertex -0.05614112008 0.04177260165 0.15
 vertex -0.05478309044 0.04065735142 0.15
 vertex -0.05462309378 0.04254234249 0.15
 endloop
 endfacet
 facet normal -0 0 1
 outer loop 
 vertex -0.0533978776 0.04170998986 0.15
 vertex -0.05478309044 0.04065735142 0.15
 vertex -0.05317821085 0.04036686861 0.15
 endloop
 endfacet
 facet normal 0 0 1
 outer loop 
 vertex -0.05478309044 0.04065735142 0.15
 vertex -0.05614112008 0.04177260165 0.15
 vertex -0.05749635571 0.04038941993 0.15
 endloop
 endfacet
 facet normal 0 0 1
 outer loop 
 vertex -0.05361623152 0.03906662327 0.15
 vertex -0.05478309044 0.04065735142 0.15
 vertex -0.05564069184 0.03932968518 0.15
 endloop
 endfacet
 facet normal -0 0 1
 outer loop 
 vertex -0.05478309044 0.04065735142 0.15
 vertex -0.05749635571 0.04038941993 0.15
 vertex -0.05564069184 0.03932968518 0.15
 endloop
 endfacet
 facet normal 0 -0 1
 outer loop 
 vertex -0.05478309044 0.04065735142 0.15
 vertex -0.05361623152 0.03906662327 0.15
 vertex -0.05317821085 0.04036686861 0.15
 endloop
 endfacet
 facet normal 0 0 1
 outer loop 
 vertex -0.05614112008 0.04177260165 0.15
 vertex -0.05741307584 0.04301034369 0.15
 vertex -0.05749635571 0.04038941993 0.15
 endloop
 endfacet
 facet normal 0 0 1
 outer loop 
 vertex -0.05361623152 0.03906662327 0.15
 vertex -0.05564069184 0.03932968518 0.15
 vertex -0.0544886749 0.03780677506 0.15
 endloop
 endfacet
 facet normal -0 0 1
 outer loop 
 vertex -0.05564069184 0.03932968518 0.15
 vertex -0.05659872839 0.03785396844 0.15
 vertex -0.0544886749 0.03780677506 0.15
 endloop
 endfacet
 facet normal 0 -0 1
 outer loop 
 vertex -0.05749635571 0.04038941993 0.15
 vertex -0.05659872839 0.03785396844 0.15
 vertex -0.05564069184 0.03932968518 0.15
 endloop
 endfacet
 facet normal 0 0 1
 outer loop 
 vertex -0.05659872839 0.03785396844 0.15
 vertex -0.05749635571 0.04038941993 0.15
 vertex -0.05840785766 0.03836767031 0.15
 endloop
 endfacet
 facet normal -0 0 1
 outer loop 
 vertex -0.05749635571 0.04038941993 0.15
 vertex -0.05991411924 0.03990412531 0.15
 vertex -0.05840785766 0.03836767031 0.15
 endloop
 endfacet
 facet normal 0 0 1
 outer loop 
 vertex -0.05991411924 0.03990412531 0.15
 vertex -0.05749635571 0.04038941993 0.15
 vertex -0.05926709538 0.04213824509 0.15
 endloop
 endfacet
 facet normal 0 -0 1
 outer loop 
 vertex -0.05926709538 0.04213824509 0.15
 vertex -0.05749635571 0.04038941993 0.15
 vertex -0.05741307584 0.04301034369 0.15
 endloop
 endfacet
 facet normal 0 0 1
 outer loop 
 vertex -0.06213693913 0.03883294681 0.15
 vertex -0.05991411924 0.03990412531 0.15
 vertex -0.06160697603 0.041210015 0.15
 endloop
 endfacet
 facet normal 0 0 1
 outer loop 
 vertex -0.05991411924 0.03990412531 0.15
 vertex -0.05926709538 0.04213824509 0.15
 vertex -0.06160697603 0.041210015 0.15
 endloop
 endfacet
 facet normal 0 0 1
 outer loop 
 vertex -0.06160697603 0.041210015 0.15
 vertex -0.05926709538 0.04213824509 0.15
 vertex -0.06188058955 0.04315150875 0.15
 endloop
 endfacet
 facet normal -0 0 1
 outer loop 
 vertex -0.06013038052 0.04391794185 0.15
 vertex -0.06188058955 0.04315150875 0.15
 vertex -0.05926709538 0.04213824509 0.15
 endloop
 endfacet
 facet normal 0 0 1
 outer loop 
 vertex -0.06013038052 0.04391794185 0.15
 vertex -0.06137873233 0.04527752163 0.15
 vertex -0.06188058955 0.04315150875 0.15
 endloop
 endfacet
 facet normal 0 0 1
 outer loop 
 vertex -0.05832030451 0.04452851482 0.15
 vertex -0.05926709538 0.04213824509 0.15
 vertex -0.05741307584 0.04301034369 0.15
 endloop
 endfacet
 facet normal -0 0 1
 outer loop 
 vertex -0.05832030451 0.04452851482 0.15
 vertex -0.06013038052 0.04391794185 0.15
 vertex -0.05926709538 0.04213824509 0.15
 endloop
 endfacet
 facet normal 0 0 1
 outer loop 
 vertex -0.05741307584 0.04301034369 0.15
 vertex -0.05623144271 0.04489122083 0.15
 vertex -0.05832030451 0.04452851482 0.15
 endloop
 endfacet
 facet normal 0 0 1
 outer loop 
 vertex -0.05832030451 0.04452851482 0.15
 vertex -0.05721762705 0.04590609074 0.15
 vertex -0.05854261025 0.04651774263 0.15
 endloop
 endfacet
 facet normal 0 0 1
 outer loop 
 vertex -0.05832030451 0.04452851482 0.15
 vertex -0.05854261025 0.04651774263 0.15
 vertex -0.05973901196 0.04558441287 0.15
 endloop
 endfacet
 facet normal 0 0 1
 outer loop 
 vertex -0.05721762705 0.04590609074 0.15
 vertex -0.05832030451 0.04452851482 0.15
 vertex -0.05623144271 0.04489122083 0.15
 endloop
 endfacet
 facet normal 0 0 1
 outer loop 
 vertex -0.06013038052 0.04391794185 0.15
 vertex -0.05832030451 0.04452851482 0.15
 vertex -0.05973901196 0.04558441287 0.15
 endloop
 endfacet
 facet normal 0 0 1
 outer loop 
 vertex -0.05721762705 0.04590609074 0.15
 vertex -0.05726491998 0.0473724083 0.15
 vertex -0.05854261025 0.04651774263 0.15
 endloop
 endfacet
 facet normal 0 0 1
 outer loop 
 vertex -0.05973901196 0.04558441287 0.15
 vertex -0.05854261025 0.04651774263 0.15
 vertex -0.0600353174 0.04693532177 0.15
 endloop
 endfacet
 facet normal 0 0 1
 outer loop 
 vertex -0.05854261025 0.04651774263 0.15
 vertex -0.05939983424 0.04800789965 0.15
 vertex -0.0600353174 0.04693532177 0.15
 endloop
 endfacet
 facet normal 0 -0 1
 outer loop 
 vertex -0.05939983424 0.04800789965 0.15
 vertex -0.05854261025 0.04651774263 0.15
 vertex -0.05829278242 0.04784621186 0.15
 endloop
 endfacet
 facet normal 0 0 1
 outer loop 
 vertex -0.05829278242 0.04784621186 0.15
 vertex -0.05854261025 0.04651774263 0.15
 vertex -0.05726491998 0.0473724083 0.15
 endloop
 endfacet
 facet normal 0 0 1
 outer loop 
 vertex -0.05614600693 0.04699731876 0.15
 vertex -0.05726491998 0.0473724083 0.15
 vertex -0.05721762705 0.04590609074 0.15
 endloop
 endfacet
 facet normal 0 0 1
 outer loop 
 vertex -0.05614600693 0.04699731876 0.15
 vertex -0.05721762705 0.04590609074 0.15
 vertex -0.0554489494 0.0461638841 0.15
 endloop
 endfacet
 facet normal 0 0 1
 outer loop 
 vertex -0.05623144271 0.04489122083 0.15
 vertex -0.0554489494 0.0461638841 0.15
 vertex -0.05721762705 0.04590609074 0.15
 endloop
 endfacet
 facet normal 0 0 1
 outer loop 
 vertex -0.06013038052 0.04391794185 0.15
 vertex -0.05973901196 0.04558441287 0.15
 vertex -0.06137873233 0.04527752163 0.15
 endloop
 endfacet
 facet normal 0 0 1
 outer loop 
 vertex -0.05973901196 0.04558441287 0.15
 vertex -0.0600353174 0.04693532177 0.15
 vertex -0.06137873233 0.04527752163 0.15
 endloop
 endfacet
 facet normal -0 0 1
 outer loop 
 vertex -0.06132100149 0.04702292125 0.15
 vertex -0.06244044759 0.04649886361 0.15
 vertex -0.06137873233 0.04527752163 0.15
 endloop
 endfacet
 facet normal 0 0 1
 outer loop 
 vertex -0.06132100149 0.04702292125 0.15
 vertex -0.06137873233 0.04527752163 0.15
 vertex -0.0600353174 0.04693532177 0.15
 endloop
 endfacet
 facet normal 0 0 1
 outer loop 
 vertex -0.06132100149 0.04702292125 0.15
 vertex -0.06239937674 0.04783307582 0.15
 vertex -0.06244044759 0.04649886361 0.15
 endloop
 endfacet
 facet normal 0 0 1
 outer loop 
 vertex -0.06239937674 0.04783307582 0.15
 vertex -0.06132100149 0.04702292125 0.15
 vertex -0.06166710683 0.04871215483 0.15
 endloop
 endfacet
 facet normal -0 0 1
 outer loop 
 vertex -0.06065925946 0.04814052266 0.15
 vertex -0.06132100149 0.04702292125 0.15
 vertex -0.0600353174 0.04693532177 0.15
 endloop
 endfacet
 facet normal 0 0 1
 outer loop 
 vertex -0.06065925946 0.04814052266 0.15
 vertex -0.06166710683 0.04871215483 0.15
 vertex -0.06132100149 0.04702292125 0.15
 endloop
 endfacet
 facet normal 0 -0 1
 outer loop 
 vertex -0.06065925946 0.04814052266 0.15
 vertex -0.0600353174 0.04693532177 0.15
 vertex -0.05939983424 0.04800789965 0.15
 endloop
 endfacet
 facet normal 0 0 1
 outer loop 
 vertex -0.06065925946 0.04814052266 0.15
 vertex -0.05939983424 0.04800789965 0.15
 vertex -0.05999873895 0.04905164334 0.15
 endloop
 endfacet
 facet normal 0 0 1
 outer loop 
 vertex -0.05999873895 0.04905164334 0.15
 vertex -0.06093398446 0.0492656427 0.15
 vertex -0.06065925946 0.04814052266 0.15
 endloop
 endfacet
 facet normal 0 0 1
 outer loop 
 vertex -0.06166710683 0.04871215483 0.15
 vertex -0.06065925946 0.04814052266 0.15
 vertex -0.06093398446 0.0492656427 0.15
 endloop
 endfacet
 facet normal 0 0 1
 outer loop 
 vertex -0.05939983424 0.04800789965 0.15
 vertex -0.05882831345 0.04901036549 0.15
 vertex -0.05999873895 0.04905164334 0.15
 endloop
 endfacet
 facet normal 0 0 1
 outer loop 
 vertex -0.05939983424 0.04800789965 0.15
 vertex -0.05829278242 0.04784621186 0.15
 vertex -0.05882831345 0.04901036549 0.15
 endloop
 endfacet
 facet normal 0 0 1
 outer loop 
 vertex -0.05999873895 0.04905164334 0.15
 vertex -0.0595381631 0.04998932964 0.15
 vertex -0.06046183196 0.04998932987 0.15
 endloop
 endfacet
 facet normal 0 0 1
 outer loop 
 vertex -0.05882831345 0.04901036549 0.15
 vertex -0.0595381631 0.04998932964 0.15
 vertex -0.05999873895 0.04905164334 0.15
 endloop
 endfacet
 facet normal 0 0 1
 outer loop 
 vertex -0.05999873895 0.04905164334 0.15
 vertex -0.06046183196 0.04998932987 0.15
 vertex -0.06093398446 0.0492656427 0.15
 endloop
 endfacet
 facet normal 0 0 1
 outer loop 
 vertex -0.05882831345 0.04901036549 0.15
 vertex -0.05861843447 0.04990410403 0.15
 vertex -0.0595381631 0.04998932964 0.15
 endloop
 endfacet
 facet normal -0 0 1
 outer loop 
 vertex -0.06046183196 0.04998932987 0.15
 vertex -0.06138156069 0.04990410471 0.15
 vertex -0.06093398446 0.0492656427 0.15
 endloop
 endfacet
 facet normal 0 0 1
 outer loop 
 vertex -0.06138156069 0.04990410471 0.15
 vertex -0.06166710683 0.04871215483 0.15
 vertex -0.06093398446 0.0492656427 0.15
 endloop
 endfacet
 facet normal 0 0 1
 outer loop 
 vertex -0.06166710683 0.04871215483 0.15
 vertex -0.06138156069 0.04990410471 0.15
 vertex -0.06228950241 0.04973438127 0.15
 endloop
 endfacet
 facet normal 0 0 1
 outer loop 
 vertex -0.05726491998 0.0473724083 0.15
 vertex -0.05661455605 0.04833705746 0.15
 vertex -0.05767899583 0.0487370846 0.15
 endloop
 endfacet
 facet normal 0 0 1
 outer loop 
 vertex -0.05726491998 0.0473724083 0.15
 vertex -0.05614600693 0.04699731876 0.15
 vertex -0.05661455605 0.04833705746 0.15
 endloop
 endfacet
 facet normal 0 0 1
 outer loop 
 vertex -0.05767899583 0.0487370846 0.15
 vertex -0.05661455605 0.04833705746 0.15
 vertex -0.05682208443 0.04948160602 0.15
 endloop
 endfacet
 facet normal 0 -0 1
 outer loop 
 vertex -0.05682208443 0.04948160602 0.15
 vertex -0.05661455605 0.04833705746 0.15
 vertex -0.05596078889 0.04914793822 0.15
 endloop
 endfacet
 facet normal -0 0 1
 outer loop 
 vertex -0.05596078889 0.04914793822 0.15
 vertex -0.05661455605 0.04833705746 0.15
 vertex -0.0555509586 0.04791721299 0.15
 endloop
 endfacet
 facet normal 0 -0 1
 outer loop 
 vertex -0.05661455605 0.04833705746 0.15
 vertex -0.05614600693 0.04699731876 0.15
 vertex -0.0555509586 0.04791721299 0.15
 endloop
 endfacet
 facet normal 0 0 1
 outer loop 
 vertex -0.05726491998 0.0473724083 0.15
 vertex -0.05767899583 0.0487370846 0.15
 vertex -0.05829278242 0.04784621186 0.15
 endloop
 endfacet
 facet normal 0 0 1
 outer loop 
 vertex -0.05767899583 0.0487370846 0.15
 vertex -0.05882831345 0.04901036549 0.15
 vertex -0.05829278242 0.04784621186 0.15
 endloop
 endfacet
 facet normal 0 0 1
 outer loop 
 vertex -0.05882831345 0.04901036549 0.15
 vertex -0.05773951927 0.04974116147 0.15
 vertex -0.05861843447 0.04990410403 0.15
 endloop
 endfacet
 facet normal 0 0 1
 outer loop 
 vertex -0.05767899583 0.0487370846 0.15
 vertex -0.05773951927 0.04974116147 0.15
 vertex -0.05882831345 0.04901036549 0.15
 endloop
 endfacet
 facet normal 0 -0 1
 outer loop 
 vertex -0.05773951927 0.04974116147 0.15
 vertex -0.05767899583 0.0487370846 0.15
 vertex -0.05682208443 0.04948160602 0.15
 endloop
 endfacet
 facet normal 0 -0 1
 outer loop 
 vertex -0.05596078889 0.04914793822 0.15
 vertex -0.0555509586 0.04791721299 0.15
 vertex -0.05513395445 0.04873622348 0.15
 endloop
 endfacet
 facet normal 0 0 1
 outer loop 
 vertex -0.05513395445 0.04873622348 0.15
 vertex -0.0555509586 0.04791721299 0.15
 vertex -0.05434863537 0.04824997441 0.15
 endloop
 endfacet
 facet normal 0 0 1
 outer loop 
 vertex -0.05614600693 0.04699731876 0.15
 vertex -0.05460853663 0.0470737942 0.15
 vertex -0.0555509586 0.04791721299 0.15
 endloop
 endfacet
 facet normal -0 0 1
 outer loop 
 vertex -0.05434863537 0.04824997441 0.15
 vertex -0.0555509586 0.04791721299 0.15
 vertex -0.05460853663 0.0470737942 0.15
 endloop
 endfacet
 facet normal -0 0 1
 outer loop 
 vertex -0.05460853663 0.0470737942 0.15
 vertex -0.05614600693 0.04699731876 0.15
 vertex -0.0554489494 0.0461638841 0.15
 endloop
 endfacet
 facet normal 0 0 1
 outer loop 
 vertex -0.05460853663 0.0470737942 0.15
 vertex -0.05361153171 0.04769333952 0.15
 vertex -0.05434863537 0.04824997441 0.15
 endloop
 endfacet
 facet normal -0 0 1
 outer loop 
 vertex -0.05361153171 0.04769333952 0.15
 vertex -0.05460853663 0.0470737942 0.15
 vertex -0.05361400485 0.04634459396 0.15
 endloop
 endfacet
 facet normal 0 0 1
 outer loop 
 vertex -0.05457956828 0.04546422073 0.15
 vertex -0.05460853663 0.0470737942 0.15
 vertex -0.0554489494 0.0461638841 0.15
 endloop
 endfacet
 facet normal 0 0 1
 outer loop 
 vertex -0.05457956828 0.04546422073 0.15
 vertex -0.05361400485 0.04634459396 0.15
 vertex -0.05460853663 0.0470737942 0.15
 endloop
 endfacet
 facet normal 0 0 1
 outer loop 
 vertex -0.05361153171 0.04769333952 0.15
 vertex -0.05361400485 0.04634459396 0.15
 vertex -0.0529289322 0.04707106782 0.15
 endloop
 endfacet
 facet normal 0 0 1
 outer loop 
 vertex -0.05361400485 0.04634459396 0.15
 vertex -0.05230666049 0.0463884683 0.15
 vertex -0.0529289322 0.04707106782 0.15
 endloop
 endfacet
 facet normal 0 0 1
 outer loop 
 vertex -0.05252690976 0.04537131957 0.15
 vertex -0.05175002558 0.04565136462 0.15
 vertex -0.05230666049 0.0463884683 0.15
 endloop
 endfacet
 facet normal -0 0 1
 outer loop 
 vertex -0.05230666049 0.0463884683 0.15
 vertex -0.05361400485 0.04634459396 0.15
 vertex -0.05252690976 0.04537131957 0.15
 endloop
 endfacet
 facet normal 0 -0 1
 outer loop 
 vertex -0.05252690976 0.04537131957 0.15
 vertex -0.05195431975 0.04449375116 0.15
 vertex -0.05175002558 0.04565136462 0.15
 endloop
 endfacet
 facet normal 0 0 1
 outer loop 
 vertex -0.05126377653 0.04486604557 0.15
 vertex -0.05175002558 0.04565136462 0.15
 vertex -0.05195431975 0.04449375116 0.15
 endloop
 endfacet
 facet normal 0 0 1
 outer loop 
 vertex -0.05252690976 0.04537131957 0.15
 vertex -0.05281019637 0.04411327634 0.15
 vertex -0.05195431975 0.04449375116 0.15
 endloop
 endfacet
 facet normal 0 -0 1
 outer loop 
 vertex -0.05340752545 0.04518657386 0.15
 vertex -0.05281019637 0.04411327634 0.15
 vertex -0.05252690976 0.04537131957 0.15
 endloop
 endfacet
 facet normal 0 0 1
 outer loop 
 vertex -0.05340752545 0.04518657386 0.15
 vertex -0.05252690976 0.04537131957 0.15
 vertex -0.05361400485 0.04634459396 0.15
 endloop
 endfacet
 facet normal -0 0 1
 outer loop 
 vertex -0.05126377653 0.04486604557 0.15
 vertex -0.05195431975 0.04449375116 0.15
 vertex -0.05085206178 0.04403921111 0.15
 endloop
 endfacet
 facet normal 0 0 1
 outer loop 
 vertex -0.05427753106 0.04420243107 0.15
 vertex -0.05281019637 0.04411327634 0.15
 vertex -0.05340752545 0.04518657386 0.15
 endloop
 endfacet
 facet normal 0 -0 1
 outer loop 
 vertex -0.05457956828 0.04546422073 0.15
 vertex -0.05427753106 0.04420243107 0.15
 vertex -0.05340752545 0.04518657386 0.15
 endloop
 endfacet
 facet normal 0 0 1
 outer loop 
 vertex -0.05340752545 0.04518657386 0.15
 vertex -0.05361400485 0.04634459396 0.15
 vertex -0.05457956828 0.04546422073 0.15
 endloop
 endfacet
 facet normal 0 0 1
 outer loop 
 vertex -0.05623144271 0.04489122083 0.15
 vertex -0.05427753106 0.04420243107 0.15
 vertex -0.05457956828 0.04546422073 0.15
 endloop
 endfacet
 facet normal 0 0 1
 outer loop 
 vertex -0.05623144271 0.04489122083 0.15
 vertex -0.05457956828 0.04546422073 0.15
 vertex -0.0554489494 0.0461638841 0.15
 endloop
 endfacet
endsolid PRO2STL version 1.0
