 solid PRO2STL version 1.0
 facet normal 0 0 -1
 outer loop 
 vertex 0.0140866793 -0.04797463357 -0.1
 vertex 0.01039156159 -0.04026481563 -0.1
 vertex 0.02077079402 -0.04548157996 -0.1
 endloop
 endfacet
 facet normal 0 0 -1
 outer loop 
 vertex 0.01896424352 -0.03714840563 -0.1
 vertex 0.02077079402 -0.04548157996 -0.1
 vertex 0.01039156159 -0.04026481563 -0.1
 endloop
 endfacet
 facet normal -0 0 -1
 outer loop 
 vertex 0.01896424352 -0.03714840563 -0.1
 vertex 0.02703207597 -0.04206265409 -0.1
 vertex 0.02077079402 -0.04548157996 -0.1
 endloop
 endfacet
 facet normal -0 0 -1
 outer loop 
 vertex 0.01039156159 -0.04026481563 -0.1
 vertex 0.0140866793 -0.04797463357 -0.1
 vertex 0.007115465759 -0.0494911118 -0.1
 endloop
 endfacet
 facet normal 0 -0 -1
 outer loop 
 vertex -1.906546182e-07 -0.05 -0.1
 vertex 0.001420002812 -0.04140750717 -0.1
 vertex 0.007115465759 -0.0494911118 -0.1
 endloop
 endfacet
 facet normal 0 -0 -1
 outer loop 
 vertex -0.007115649483 -0.04949108538 -0.1
 vertex -0.006598090596 -0.04233201212 -0.1
 vertex -1.906546182e-07 -0.05 -0.1
 endloop
 endfacet
 facet normal 0 0 -1
 outer loop 
 vertex 0.001420002812 -0.04140750717 -0.1
 vertex -1.906546182e-07 -0.05 -0.1
 vertex -0.006598090596 -0.04233201212 -0.1
 endloop
 endfacet
 facet normal 0 0 -1
 outer loop 
 vertex 0.001420002812 -0.04140750717 -0.1
 vertex 0.01039156159 -0.04026481563 -0.1
 vertex 0.007115465759 -0.0494911118 -0.1
 endloop
 endfacet
 facet normal 0 0 -1
 outer loop 
 vertex -0.01408667918 -0.04797463361 -0.1
 vertex -0.006598090596 -0.04233201212 -0.1
 vertex -0.007115649483 -0.04949108538 -0.1
 endloop
 endfacet
 facet normal 0 0 -1
 outer loop 
 vertex -0.01385838793 -0.03854688522 -0.1
 vertex -0.01408667918 -0.04797463361 -0.1
 vertex -0.02077079394 -0.04548158 -0.1
 endloop
 endfacet
 facet normal -0 0 -1
 outer loop 
 vertex -0.01385838793 -0.03854688522 -0.1
 vertex -0.006598090596 -0.04233201212 -0.1
 vertex -0.01408667918 -0.04797463361 -0.1
 endloop
 endfacet
 facet normal 0 0 -1
 outer loop 
 vertex -0.02077079394 -0.04548158 -0.1
 vertex -0.02703207577 -0.04206265422 -0.1
 vertex -0.02116130337 -0.03946369169 -0.1
 endloop
 endfacet
 facet normal 0 0 -1
 outer loop 
 vertex -0.01385838793 -0.03854688522 -0.1
 vertex -0.02077079394 -0.04548158 -0.1
 vertex -0.02116130337 -0.03946369169 -0.1
 endloop
 endfacet
 facet normal 0 0 -1
 outer loop 
 vertex -0.04120599421 0.01521773203 -0.1
 vertex -0.04797465201 0.01408661651 -0.1
 vertex -0.04548160711 0.02077073457 -0.1
 endloop
 endfacet
 facet normal 0 0 -1
 outer loop 
 vertex -0.04120599421 0.01521773203 -0.1
 vertex -0.04548160711 0.02077073457 -0.1
 vertex -0.03647773979 0.01968437605 -0.1
 endloop
 endfacet
 facet normal 0 0 -1
 outer loop 
 vertex -0.03647773979 0.01968437605 -0.1
 vertex -0.04548160711 0.02077073457 -0.1
 vertex -0.04206268941 0.02703202101 -0.1
 endloop
 endfacet
 facet normal 0 0 -1
 outer loop 
 vertex -0.04026187047 0.008534573068 -0.1
 vertex -0.04944154131 0.007452113321 -0.1
 vertex -0.04797465201 0.01408661651 -0.1
 endloop
 endfacet
 facet normal 0 0 -1
 outer loop 
 vertex -0.04026187047 0.008534573068 -0.1
 vertex -0.04797465201 0.01408661651 -0.1
 vertex -0.04120599421 0.01521773203 -0.1
 endloop
 endfacet
 facet normal 0 -0 -1
 outer loop 
 vertex -0.05 6.123233996e-18 -0.1
 vertex -0.04944154131 0.007452113321 -0.1
 vertex -0.04265495065 0.001945864208 -0.1
 endloop
 endfacet
 facet normal 0 0 -1
 outer loop 
 vertex -0.04944154131 0.007452113321 -0.1
 vertex -0.04026187047 0.008534573068 -0.1
 vertex -0.04265495065 0.001945864208 -0.1
 endloop
 endfacet
 facet normal 0 0 -1
 outer loop 
 vertex -0.04944154132 -0.00745211327 -0.1
 vertex -0.05 6.123233996e-18 -0.1
 vertex -0.04146435076 -0.005956411114 -0.1
 endloop
 endfacet
 facet normal 0 -0 -1
 outer loop 
 vertex -0.05 6.123233996e-18 -0.1
 vertex -0.04265495065 0.001945864208 -0.1
 vertex -0.04146435076 -0.005956411114 -0.1
 endloop
 endfacet
 facet normal 0 0 -1
 outer loop 
 vertex -0.04944154132 -0.00745211327 -0.1
 vertex -0.04146435076 -0.005956411114 -0.1
 vertex -0.04797465202 -0.01408661647 -0.1
 endloop
 endfacet
 facet normal 0 0 -1
 outer loop 
 vertex -0.04797465202 -0.01408661647 -0.1
 vertex -0.03917902498 -0.01392907865 -0.1
 vertex -0.04548160719 -0.0207707344 -0.1
 endloop
 endfacet
 facet normal -0 0 -1
 outer loop 
 vertex -0.04146435076 -0.005956411114 -0.1
 vertex -0.03917902498 -0.01392907865 -0.1
 vertex -0.04797465202 -0.01408661647 -0.1
 endloop
 endfacet
 facet normal -0 0 -1
 outer loop 
 vertex -0.04548160719 -0.0207707344 -0.1
 vertex -0.03949138571 -0.02101980076 -0.1
 vertex -0.04206268946 -0.02703202093 -0.1
 endloop
 endfacet
 facet normal 0 0 -1
 outer loop 
 vertex -0.03917902498 -0.01392907865 -0.1
 vertex -0.03949138571 -0.02101980076 -0.1
 vertex -0.04548160719 -0.0207707344 -0.1
 endloop
 endfacet
 facet normal 0 0 -1
 outer loop 
 vertex -0.02734984123 -0.03458230233 -0.1
 vertex -0.03274306359 -0.03778745542 -0.1
 vertex -0.03054870772 -0.02883326385 -0.1
 endloop
 endfacet
 facet normal 0 0 -1
 outer loop 
 vertex -0.03054870772 -0.02883326385 -0.1
 vertex -0.0227385541 -0.02430324587 -0.1
 vertex -0.02734984123 -0.03458230233 -0.1
 endloop
 endfacet
 facet normal 0 -0 -1
 outer loop 
 vertex -0.03274306359 -0.03778745542 -0.1
 vertex -0.02734984123 -0.03458230233 -0.1
 vertex -0.02703207577 -0.04206265422 -0.1
 endloop
 endfacet
 facet normal 0 0 -1
 outer loop 
 vertex -0.02703207577 -0.04206265422 -0.1
 vertex -0.02734984123 -0.03458230233 -0.1
 vertex -0.02116130337 -0.03946369169 -0.1
 endloop
 endfacet
 facet normal 0 0 -1
 outer loop 
 vertex -0.02087091216 -0.03275549705 -0.1
 vertex -0.02116130337 -0.03946369169 -0.1
 vertex -0.02734984123 -0.03458230233 -0.1
 endloop
 endfacet
 facet normal 0 0 -1
 outer loop 
 vertex -0.02087091216 -0.03275549705 -0.1
 vertex -0.02734984123 -0.03458230233 -0.1
 vertex -0.0227385541 -0.02430324587 -0.1
 endloop
 endfacet
 facet normal 0 0 -1
 outer loop 
 vertex -0.03778749814 -0.03274301428 -0.1
 vertex -0.03054870772 -0.02883326385 -0.1
 vertex -0.03274306359 -0.03778745542 -0.1
 endloop
 endfacet
 facet normal 0 0 -1
 outer loop 
 vertex -0.03054870772 -0.02883326385 -0.1
 vertex -0.03778749814 -0.03274301428 -0.1
 vertex -0.03359762874 -0.02331426483 -0.1
 endloop
 endfacet
 facet normal -0 0 -1
 outer loop 
 vertex -0.03359762874 -0.02331426483 -0.1
 vertex -0.0227385541 -0.02430324587 -0.1
 vertex -0.03054870772 -0.02883326385 -0.1
 endloop
 endfacet
 facet normal 0 0 -1
 outer loop 
 vertex -0.04206268946 -0.02703202093 -0.1
 vertex -0.03359762874 -0.02331426483 -0.1
 vertex -0.03778749814 -0.03274301428 -0.1
 endloop
 endfacet
 facet normal -0 0 -1
 outer loop 
 vertex -0.03949138571 -0.02101980076 -0.1
 vertex -0.03359762874 -0.02331426483 -0.1
 vertex -0.04206268946 -0.02703202093 -0.1
 endloop
 endfacet
 facet normal -0 0 -1
 outer loop 
 vertex -0.02087091216 -0.03275549705 -0.1
 vertex -0.01385838793 -0.03854688522 -0.1
 vertex -0.02116130337 -0.03946369169 -0.1
 endloop
 endfacet
 facet normal 0 0 -1
 outer loop 
 vertex -0.01385838793 -0.03854688522 -0.1
 vertex -0.02087091216 -0.03275549705 -0.1
 vertex -0.01338327701 -0.02883243944 -0.1
 endloop
 endfacet
 facet normal 0 0 -1
 outer loop 
 vertex -0.005660095625 -0.03394830794 -0.1
 vertex -0.01385838793 -0.03854688522 -0.1
 vertex -0.01338327701 -0.02883243944 -0.1
 endloop
 endfacet
 facet normal 0 0 -1
 outer loop 
 vertex -0.005660095625 -0.03394830794 -0.1
 vertex -0.006598090596 -0.04233201212 -0.1
 vertex -0.01385838793 -0.03854688522 -0.1
 endloop
 endfacet
 facet normal 0 0 -1
 outer loop 
 vertex -0.02087091216 -0.03275549705 -0.1
 vertex -0.0227385541 -0.02430324587 -0.1
 vertex -0.01338327701 -0.02883243944 -0.1
 endloop
 endfacet
 facet normal 0 0 -1
 outer loop 
 vertex -0.01153987374 -0.0196789198 -0.1
 vertex -0.01338327701 -0.02883243944 -0.1
 vertex -0.0227385541 -0.02430324587 -0.1
 endloop
 endfacet
 facet normal 0 -0 -1
 outer loop 
 vertex -0.01338327701 -0.02883243944 -0.1
 vertex -0.01153987374 -0.0196789198 -0.1
 vertex -0.002051004484 -0.02504817646 -0.1
 endloop
 endfacet
 facet normal 0 0 -1
 outer loop 
 vertex -0.005660095625 -0.03394830794 -0.1
 vertex -0.01338327701 -0.02883243944 -0.1
 vertex -0.002051004484 -0.02504817646 -0.1
 endloop
 endfacet
 facet normal 0 -0 -1
 outer loop 
 vertex -0.0227385541 -0.02430324587 -0.1
 vertex -0.02089957854 -0.0151282413 -0.1
 vertex -0.01153987374 -0.0196789198 -0.1
 endloop
 endfacet
 facet normal 0 0 -1
 outer loop 
 vertex -0.0227385541 -0.02430324587 -0.1
 vertex -0.03001242542 -0.01620693384 -0.1
 vertex -0.02089957854 -0.0151282413 -0.1
 endloop
 endfacet
 facet normal 0 0 -1
 outer loop 
 vertex -0.03001242542 -0.01620693384 -0.1
 vertex -0.0227385541 -0.02430324587 -0.1
 vertex -0.03359762874 -0.02331426483 -0.1
 endloop
 endfacet
 facet normal 0 0 -1
 outer loop 
 vertex -0.01153987374 -0.0196789198 -0.1
 vertex -0.02089957854 -0.0151282413 -0.1
 vertex -0.01228477849 -0.008504213957 -0.1
 endloop
 endfacet
 facet normal 0 0 -1
 outer loop 
 vertex -0.001150919376 -0.01373696331 -0.1
 vertex -0.01153987374 -0.0196789198 -0.1
 vertex -0.01228477849 -0.008504213957 -0.1
 endloop
 endfacet
 facet normal 0 0 -1
 outer loop 
 vertex -0.002051004484 -0.02504817646 -0.1
 vertex -0.01153987374 -0.0196789198 -0.1
 vertex -0.001150919376 -0.01373696331 -0.1
 endloop
 endfacet
 facet normal 0 -0 -1
 outer loop 
 vertex -0.03001242542 -0.01620693384 -0.1
 vertex -0.0229870825 -0.005255421955 -0.1
 vertex -0.02089957854 -0.0151282413 -0.1
 endloop
 endfacet
 facet normal 0 0 -1
 outer loop 
 vertex -0.02089957854 -0.0151282413 -0.1
 vertex -0.0229870825 -0.005255421955 -0.1
 vertex -0.01228477849 -0.008504213957 -0.1
 endloop
 endfacet
 facet normal 0 0 -1
 outer loop 
 vertex -0.03359762874 -0.02331426483 -0.1
 vertex -0.03949138571 -0.02101980076 -0.1
 vertex -0.03001242542 -0.01620693384 -0.1
 endloop
 endfacet
 facet normal -0 0 -1
 outer loop 
 vertex -0.03917902498 -0.01392907865 -0.1
 vertex -0.03001242542 -0.01620693384 -0.1
 vertex -0.03949138571 -0.02101980076 -0.1
 endloop
 endfacet
 facet normal 0 0 -1
 outer loop 
 vertex -0.03001242542 -0.01620693384 -0.1
 vertex -0.03917902498 -0.01392907865 -0.1
 vertex -0.03235244398 -0.007658062763 -0.1
 endloop
 endfacet
 facet normal 0 0 -1
 outer loop 
 vertex -0.0229870825 -0.005255421955 -0.1
 vertex -0.03001242542 -0.01620693384 -0.1
 vertex -0.03235244398 -0.007658062763 -0.1
 endloop
 endfacet
 facet normal -0 0 -1
 outer loop 
 vertex -0.04146435076 -0.005956411114 -0.1
 vertex -0.03235244398 -0.007658062763 -0.1
 vertex -0.03917902498 -0.01392907865 -0.1
 endloop
 endfacet
 facet normal 0 -0 -1
 outer loop 
 vertex -0.04146435076 -0.005956411114 -0.1
 vertex -0.03383776998 0.001091809446 -0.1
 vertex -0.03235244398 -0.007658062763 -0.1
 endloop
 endfacet
 facet normal 0 0 -1
 outer loop 
 vertex -0.03383776998 0.001091809446 -0.1
 vertex -0.04146435076 -0.005956411114 -0.1
 vertex -0.04265495065 0.001945864208 -0.1
 endloop
 endfacet
 facet normal -0 0 -1
 outer loop 
 vertex -0.03383776998 0.001091809446 -0.1
 vertex -0.0229870825 -0.005255421955 -0.1
 vertex -0.03235244398 -0.007658062763 -0.1
 endloop
 endfacet
 facet normal 0 0 -1
 outer loop 
 vertex -0.04026187047 0.008534573068 -0.1
 vertex -0.03383776998 0.001091809446 -0.1
 vertex -0.04265495065 0.001945864208 -0.1
 endloop
 endfacet
 facet normal 0 0 -1
 outer loop 
 vertex -0.03221320759 0.01116878113 -0.1
 vertex -0.03383776998 0.001091809446 -0.1
 vertex -0.04026187047 0.008534573068 -0.1
 endloop
 endfacet
 facet normal 0 -0 -1
 outer loop 
 vertex -0.03383776998 0.001091809446 -0.1
 vertex -0.03221320759 0.01116878113 -0.1
 vertex -0.02521161048 0.004899923975 -0.1
 endloop
 endfacet
 facet normal 0 -0 -1
 outer loop 
 vertex -0.03383776998 0.001091809446 -0.1
 vertex -0.02521161048 0.004899923975 -0.1
 vertex -0.0229870825 -0.005255421955 -0.1
 endloop
 endfacet
 facet normal 0 0 -1
 outer loop 
 vertex -0.04026187047 0.008534573068 -0.1
 vertex -0.04120599421 0.01521773203 -0.1
 vertex -0.03221320759 0.01116878113 -0.1
 endloop
 endfacet
 facet normal 0 0 -1
 outer loop 
 vertex -0.03647773979 0.01968437605 -0.1
 vertex -0.03221320759 0.01116878113 -0.1
 vertex -0.04120599421 0.01521773203 -0.1
 endloop
 endfacet
 facet normal 0 0 -1
 outer loop 
 vertex -0.03221320759 0.01116878113 -0.1
 vertex -0.03647773979 0.01968437605 -0.1
 vertex -0.0274576909 0.01830241603 -0.1
 endloop
 endfacet
 facet normal 0 0 -1
 outer loop 
 vertex -0.01923750806 0.01312756316 -0.1
 vertex -0.03221320759 0.01116878113 -0.1
 vertex -0.0274576909 0.01830241603 -0.1
 endloop
 endfacet
 facet normal 0 0 -1
 outer loop 
 vertex -0.03221320759 0.01116878113 -0.1
 vertex -0.01923750806 0.01312756316 -0.1
 vertex -0.02521161048 0.004899923975 -0.1
 endloop
 endfacet
 facet normal 0 0 -1
 outer loop 
 vertex -0.03247804282 0.02622914813 -0.1
 vertex -0.0274576909 0.01830241603 -0.1
 vertex -0.03647773979 0.01968437605 -0.1
 endloop
 endfacet
 facet normal 0 0 -1
 outer loop 
 vertex -0.02198146602 0.02566981837 -0.1
 vertex -0.01923750806 0.01312756316 -0.1
 vertex -0.0274576909 0.01830241603 -0.1
 endloop
 endfacet
 facet normal -0 0 -1
 outer loop 
 vertex -0.03247804282 0.02622914813 -0.1
 vertex -0.02198146602 0.02566981837 -0.1
 vertex -0.0274576909 0.01830241603 -0.1
 endloop
 endfacet
 facet normal 0 0 -1
 outer loop 
 vertex -0.03647773979 0.01968437605 -0.1
 vertex -0.04206268941 0.02703202101 -0.1
 vertex -0.03247804282 0.02622914813 -0.1
 endloop
 endfacet
 facet normal 0 0 -1
 outer loop 
 vertex -0.007167246986 0.01101373917 -0.1
 vertex -0.01923750806 0.01312756316 -0.1
 vertex -0.01358060303 0.02155409913 -0.1
 endloop
 endfacet
 facet normal -0 0 -1
 outer loop 
 vertex -0.02198146602 0.02566981837 -0.1
 vertex -0.01358060303 0.02155409913 -0.1
 vertex -0.01923750806 0.01312756316 -0.1
 endloop
 endfacet
 facet normal 0 0 -1
 outer loop 
 vertex -0.00356125497 0.02155490258 -0.1
 vertex -0.007167246986 0.01101373917 -0.1
 vertex -0.01358060303 0.02155409913 -0.1
 endloop
 endfacet
 facet normal -0 0 -1
 outer loop 
 vertex -0.01203805012 0.031083168 -0.1
 vertex -0.00356125497 0.02155490258 -0.1
 vertex -0.01358060303 0.02155409913 -0.1
 endloop
 endfacet
 facet normal 0 0 -1
 outer loop 
 vertex -0.02198146602 0.02566981837 -0.1
 vertex -0.01203805012 0.031083168 -0.1
 vertex -0.01358060303 0.02155409913 -0.1
 endloop
 endfacet
 facet normal 0 -0 -1
 outer loop 
 vertex -0.02521161048 0.004899923975 -0.1
 vertex -0.01923750806 0.01312756316 -0.1
 vertex -0.014011531 0.002182717146 -0.1
 endloop
 endfacet
 facet normal -0 0 -1
 outer loop 
 vertex -0.01923750806 0.01312756316 -0.1
 vertex -0.007167246986 0.01101373917 -0.1
 vertex -0.014011531 0.002182717146 -0.1
 endloop
 endfacet
 facet normal -0 0 -1
 outer loop 
 vertex -0.02521161048 0.004899923975 -0.1
 vertex -0.014011531 0.002182717146 -0.1
 vertex -0.0229870825 -0.005255421955 -0.1
 endloop
 endfacet
 facet normal 0 0 -1
 outer loop 
 vertex -0.014011531 0.002182717146 -0.1
 vertex -0.01228477849 -0.008504213957 -0.1
 vertex -0.0229870825 -0.005255421955 -0.1
 endloop
 endfacet
 facet normal -0 0 -1
 outer loop 
 vertex -0.014011531 0.002182717146 -0.1
 vertex 0.0006839552731 3.673540784e-05 -0.1
 vertex -0.01228477849 -0.008504213957 -0.1
 endloop
 endfacet
 facet normal 0 0 -1
 outer loop 
 vertex -0.007167246986 0.01101373917 -0.1
 vertex 0.0006839552731 3.673540784e-05 -0.1
 vertex -0.014011531 0.002182717146 -0.1
 endloop
 endfacet
 facet normal 0 0 -1
 outer loop 
 vertex -0.001150919376 -0.01373696331 -0.1
 vertex -0.01228477849 -0.008504213957 -0.1
 vertex 0.0006839552731 3.673540784e-05 -0.1
 endloop
 endfacet
 facet normal 0 0 -1
 outer loop 
 vertex 0.005346393194 0.01135685753 -0.1
 vertex 0.0006839552731 3.673540784e-05 -0.1
 vertex -0.007167246986 0.01101373917 -0.1
 endloop
 endfacet
 facet normal -0 0 -1
 outer loop 
 vertex 0.005346393194 0.01135685753 -0.1
 vertex 0.01819597129 0.006459921271 -0.1
 vertex 0.0006839552731 3.673540784e-05 -0.1
 endloop
 endfacet
 facet normal 0 0 -1
 outer loop 
 vertex 0.01000746326 -0.008461072685 -0.1
 vertex 0.0006839552731 3.673540784e-05 -0.1
 vertex 0.01819597129 0.006459921271 -0.1
 endloop
 endfacet
 facet normal 0 0 -1
 outer loop 
 vertex 0.01000746326 -0.008461072685 -0.1
 vertex -0.001150919376 -0.01373696331 -0.1
 vertex 0.0006839552731 3.673540784e-05 -0.1
 endloop
 endfacet
 facet normal -0 0 -1
 outer loop 
 vertex -0.00356125497 0.02155490258 -0.1
 vertex 0.005346393194 0.01135685753 -0.1
 vertex -0.007167246986 0.01101373917 -0.1
 endloop
 endfacet
 facet normal 0 0 -1
 outer loop 
 vertex -0.00356125497 0.02155490258 -0.1
 vertex 0.006253391464 0.02309770327 -0.1
 vertex 0.005346393194 0.01135685753 -0.1
 endloop
 endfacet
 facet normal 0 -0 -1
 outer loop 
 vertex 0.005346393194 0.01135685753 -0.1
 vertex 0.006253391464 0.02309770327 -0.1
 vertex 0.01534751446 0.01766253875 -0.1
 endloop
 endfacet
 facet normal 0 0 -1
 outer loop 
 vertex 0.01819597129 0.006459921271 -0.1
 vertex 0.005346393194 0.01135685753 -0.1
 vertex 0.01534751446 0.01766253875 -0.1
 endloop
 endfacet
 facet normal 0 -0 -1
 outer loop 
 vertex -0.00356125497 0.02155490258 -0.1
 vertex -0.002646930551 0.03160416719 -0.1
 vertex 0.006253391464 0.02309770327 -0.1
 endloop
 endfacet
 facet normal 0 -0 -1
 outer loop 
 vertex 0.006253391464 0.02309770327 -0.1
 vertex 0.01430744402 0.02880754268 -0.1
 vertex 0.01534751446 0.01766253875 -0.1
 endloop
 endfacet
 facet normal 0 -0 -1
 outer loop 
 vertex 0.006253391464 0.02309770327 -0.1
 vertex 0.006270734567 0.03333017371 -0.1
 vertex 0.01430744402 0.02880754268 -0.1
 endloop
 endfacet
 facet normal 0 0 -1
 outer loop 
 vertex 0.006270734567 0.03333017371 -0.1
 vertex 0.006253391464 0.02309770327 -0.1
 vertex -0.002646930551 0.03160416719 -0.1
 endloop
 endfacet
 facet normal 0 0 -1
 outer loop 
 vertex -0.00356125497 0.02155490258 -0.1
 vertex -0.01203805012 0.031083168 -0.1
 vertex -0.002646930551 0.03160416719 -0.1
 endloop
 endfacet
 facet normal 0 0 -1
 outer loop 
 vertex 0.02633291532 0.01608405623 -0.1
 vertex 0.01819597129 0.006459921271 -0.1
 vertex 0.01534751446 0.01766253875 -0.1
 endloop
 endfacet
 facet normal 0 0 -1
 outer loop 
 vertex 0.0224713151 0.02514528454 -0.1
 vertex 0.01534751446 0.01766253875 -0.1
 vertex 0.01430744402 0.02880754268 -0.1
 endloop
 endfacet
 facet normal 0 0 -1
 outer loop 
 vertex 0.02633291532 0.01608405623 -0.1
 vertex 0.01534751446 0.01766253875 -0.1
 vertex 0.0224713151 0.02514528454 -0.1
 endloop
 endfacet
 facet normal 0 -0 -1
 outer loop 
 vertex 0.01000746326 -0.008461072685 -0.1
 vertex 0.01819597129 0.006459921271 -0.1
 vertex 0.02125393501 -0.006468496835 -0.1
 endloop
 endfacet
 facet normal 0 0 -1
 outer loop 
 vertex 0.03287648187 -0.002792430227 -0.1
 vertex 0.02125393501 -0.006468496835 -0.1
 vertex 0.01819597129 0.006459921271 -0.1
 endloop
 endfacet
 facet normal 0 -0 -1
 outer loop 
 vertex 0.01819597129 0.006459921271 -0.1
 vertex 0.03150183038 0.007767935773 -0.1
 vertex 0.03287648187 -0.002792430227 -0.1
 endloop
 endfacet
 facet normal 0 -0 -1
 outer loop 
 vertex 0.01819597129 0.006459921271 -0.1
 vertex 0.02633291532 0.01608405623 -0.1
 vertex 0.03150183038 0.007767935773 -0.1
 endloop
 endfacet
 facet normal 0 0 -1
 outer loop 
 vertex 0.02125393501 -0.006468496835 -0.1
 vertex 0.01813384657 -0.01765955125 -0.1
 vertex 0.01000746326 -0.008461072685 -0.1
 endloop
 endfacet
 facet normal 0 -0 -1
 outer loop 
 vertex 0.0082930968 -0.02160431212 -0.1
 vertex 0.01000746326 -0.008461072685 -0.1
 vertex 0.01813384657 -0.01765955125 -0.1
 endloop
 endfacet
 facet normal 0 0 -1
 outer loop 
 vertex 0.01000746326 -0.008461072685 -0.1
 vertex 0.0082930968 -0.02160431212 -0.1
 vertex -0.001150919376 -0.01373696331 -0.1
 endloop
 endfacet
 facet normal 0 0 -1
 outer loop 
 vertex 0.02125393501 -0.006468496835 -0.1
 vertex 0.02748457664 -0.01975923643 -0.1
 vertex 0.01813384657 -0.01765955125 -0.1
 endloop
 endfacet
 facet normal 0 0 -1
 outer loop 
 vertex 0.02748457664 -0.01975923643 -0.1
 vertex 0.02125393501 -0.006468496835 -0.1
 vertex 0.03071404492 -0.01185018353 -0.1
 endloop
 endfacet
 facet normal 0 0 -1
 outer loop 
 vertex 0.02125393501 -0.006468496835 -0.1
 vertex 0.03287648187 -0.002792430227 -0.1
 vertex 0.03071404492 -0.01185018353 -0.1
 endloop
 endfacet
 facet normal 0 0 -1
 outer loop 
 vertex 0.02056048851 -0.02696848518 -0.1
 vertex 0.0082930968 -0.02160431212 -0.1
 vertex 0.01813384657 -0.01765955125 -0.1
 endloop
 endfacet
 facet normal 0 0 -1
 outer loop 
 vertex 0.02748457664 -0.01975923643 -0.1
 vertex 0.02056048851 -0.02696848518 -0.1
 vertex 0.01813384657 -0.01765955125 -0.1
 endloop
 endfacet
 facet normal 0 0 -1
 outer loop 
 vertex 0.0082930968 -0.02160431212 -0.1
 vertex -0.002051004484 -0.02504817646 -0.1
 vertex -0.001150919376 -0.01373696331 -0.1
 endloop
 endfacet
 facet normal 0 0 -1
 outer loop 
 vertex 0.0082930968 -0.02160431212 -0.1
 vertex 0.003993180325 -0.03269700764 -0.1
 vertex -0.002051004484 -0.02504817646 -0.1
 endloop
 endfacet
 facet normal 0 -0 -1
 outer loop 
 vertex 0.003993180325 -0.03269700764 -0.1
 vertex 0.0082930968 -0.02160431212 -0.1
 vertex 0.01244695521 -0.03088763376 -0.1
 endloop
 endfacet
 facet normal -0 0 -1
 outer loop 
 vertex 0.0082930968 -0.02160431212 -0.1
 vertex 0.02056048851 -0.02696848518 -0.1
 vertex 0.01244695521 -0.03088763376 -0.1
 endloop
 endfacet
 facet normal 0 -0 -1
 outer loop 
 vertex -0.005660095625 -0.03394830794 -0.1
 vertex -0.002051004484 -0.02504817646 -0.1
 vertex 0.003993180325 -0.03269700764 -0.1
 endloop
 endfacet
 facet normal 0 0 -1
 outer loop 
 vertex -0.005660095625 -0.03394830794 -0.1
 vertex 0.003993180325 -0.03269700764 -0.1
 vertex 0.001420002812 -0.04140750717 -0.1
 endloop
 endfacet
 facet normal -0 0 -1
 outer loop 
 vertex 0.003993180325 -0.03269700764 -0.1
 vertex 0.01039156159 -0.04026481563 -0.1
 vertex 0.001420002812 -0.04140750717 -0.1
 endloop
 endfacet
 facet normal 0 0 -1
 outer loop 
 vertex 0.003993180325 -0.03269700764 -0.1
 vertex 0.01244695521 -0.03088763376 -0.1
 vertex 0.01039156159 -0.04026481563 -0.1
 endloop
 endfacet
 facet normal -0 0 -1
 outer loop 
 vertex -0.005660095625 -0.03394830794 -0.1
 vertex 0.001420002812 -0.04140750717 -0.1
 vertex -0.006598090596 -0.04233201212 -0.1
 endloop
 endfacet
 facet normal 0 0 -1
 outer loop 
 vertex 0.01896424352 -0.03714840563 -0.1
 vertex 0.01039156159 -0.04026481563 -0.1
 vertex 0.01244695521 -0.03088763376 -0.1
 endloop
 endfacet
 facet normal 0 0 -1
 outer loop 
 vertex 0.02056048851 -0.02696848518 -0.1
 vertex 0.01896424352 -0.03714840563 -0.1
 vertex 0.01244695521 -0.03088763376 -0.1
 endloop
 endfacet
 facet normal -0 0 -1
 outer loop 
 vertex 0.02056048851 -0.02696848518 -0.1
 vertex 0.02628071601 -0.03350682773 -0.1
 vertex 0.01896424352 -0.03714840563 -0.1
 endloop
 endfacet
 facet normal 0 0 -1
 outer loop 
 vertex 0.02628071601 -0.03350682773 -0.1
 vertex 0.02703207597 -0.04206265409 -0.1
 vertex 0.01896424352 -0.03714840563 -0.1
 endloop
 endfacet
 facet normal -0 0 -1
 outer loop 
 vertex 0.02056048851 -0.02696848518 -0.1
 vertex 0.0314987076 -0.02743057352 -0.1
 vertex 0.02628071601 -0.03350682773 -0.1
 endloop
 endfacet
 facet normal 0 -0 -1
 outer loop 
 vertex 0.02056048851 -0.02696848518 -0.1
 vertex 0.02748457664 -0.01975923643 -0.1
 vertex 0.0314987076 -0.02743057352 -0.1
 endloop
 endfacet
 facet normal 0 0 -1
 outer loop 
 vertex 0.01427115091 0.03859569094 -0.1
 vertex 0.007855674957 0.04219409877 -0.1
 vertex 0.01408667918 0.04797463361 -0.1
 endloop
 endfacet
 facet normal 0 0 -1
 outer loop 
 vertex 0.01408667918 0.04797463361 -0.1
 vertex 0.007855674957 0.04219409877 -0.1
 vertex 0.007115466037 0.04949111176 -0.1
 endloop
 endfacet
 facet normal 0 0 -1
 outer loop 
 vertex 0.01427115091 0.03859569094 -0.1
 vertex 0.01408667918 0.04797463361 -0.1
 vertex 0.02077079394 0.04548158 -0.1
 endloop
 endfacet
 facet normal 0 0 -1
 outer loop 
 vertex 0.01427115091 0.03859569094 -0.1
 vertex 0.006270734567 0.03333017371 -0.1
 vertex 0.007855674957 0.04219409877 -0.1
 endloop
 endfacet
 facet normal 0 0 -1
 outer loop 
 vertex 0.006270734567 0.03333017371 -0.1
 vertex 0.0001731270433 0.04136560637 -0.1
 vertex 0.007855674957 0.04219409877 -0.1
 endloop
 endfacet
 facet normal 0 0 -1
 outer loop 
 vertex 0.007855674957 0.04219409877 -0.1
 vertex 0.0001731270433 0.04136560637 -0.1
 vertex 0.007115466037 0.04949111176 -0.1
 endloop
 endfacet
 facet normal 0 0 -1
 outer loop 
 vertex 0.02133215709 0.03518217582 -0.1
 vertex 0.01427115091 0.03859569094 -0.1
 vertex 0.02077079394 0.04548158 -0.1
 endloop
 endfacet
 facet normal 0 0 -1
 outer loop 
 vertex 0.02703207577 0.04206265422 -0.1
 vertex 0.02133215709 0.03518217582 -0.1
 vertex 0.02077079394 0.04548158 -0.1
 endloop
 endfacet
 facet normal 0 0 -1
 outer loop 
 vertex 0.02133215709 0.03518217582 -0.1
 vertex 0.0224713151 0.02514528454 -0.1
 vertex 0.01430744402 0.02880754268 -0.1
 endloop
 endfacet
 facet normal -0 0 -1
 outer loop 
 vertex 0.02133215709 0.03518217582 -0.1
 vertex 0.02828272298 0.03234749966 -0.1
 vertex 0.0224713151 0.02514528454 -0.1
 endloop
 endfacet
 facet normal -0 0 -1
 outer loop 
 vertex 0.01427115091 0.03859569094 -0.1
 vertex 0.02133215709 0.03518217582 -0.1
 vertex 0.01430744402 0.02880754268 -0.1
 endloop
 endfacet
 facet normal 0 0 -1
 outer loop 
 vertex 0.02828272298 0.03234749966 -0.1
 vertex 0.02133215709 0.03518217582 -0.1
 vertex 0.02703207577 0.04206265422 -0.1
 endloop
 endfacet
 facet normal 0 -0 -1
 outer loop 
 vertex 0.0224713151 0.02514528454 -0.1
 vertex 0.02828272298 0.03234749966 -0.1
 vertex 0.03151199884 0.02502684681 -0.1
 endloop
 endfacet
 facet normal -0 0 -1
 outer loop 
 vertex 0.0224713151 0.02514528454 -0.1
 vertex 0.03151199884 0.02502684681 -0.1
 vertex 0.02633291532 0.01608405623 -0.1
 endloop
 endfacet
 facet normal 0 0 -1
 outer loop 
 vertex 0.01427115091 0.03859569094 -0.1
 vertex 0.01430744402 0.02880754268 -0.1
 vertex 0.006270734567 0.03333017371 -0.1
 endloop
 endfacet
 facet normal -0 0 -1
 outer loop 
 vertex 0.0001731270433 0.04136560637 -0.1
 vertex 0.006270734567 0.03333017371 -0.1
 vertex -0.002646930551 0.03160416719 -0.1
 endloop
 endfacet
 facet normal 0 0 -1
 outer loop 
 vertex -0.00740299097 0.04030450212 -0.1
 vertex 0.0001731270433 0.04136560637 -0.1
 vertex -0.002646930551 0.03160416719 -0.1
 endloop
 endfacet
 facet normal 0 -0 -1
 outer loop 
 vertex -0.00740299097 0.04030450212 -0.1
 vertex -0.007115649651 0.04949108536 -0.1
 vertex 0.0001731270433 0.04136560637 -0.1
 endloop
 endfacet
 facet normal 0 0 -1
 outer loop 
 vertex 0.0001731270433 0.04136560637 -0.1
 vertex -0.007115649651 0.04949108536 -0.1
 vertex -1.908539656e-07 0.05 -0.1
 endloop
 endfacet
 facet normal -0 0 -1
 outer loop 
 vertex -1.908539656e-07 0.05 -0.1
 vertex 0.007115466037 0.04949111176 -0.1
 vertex 0.0001731270433 0.04136560637 -0.1
 endloop
 endfacet
 facet normal -0 0 -1
 outer loop 
 vertex -0.00740299097 0.04030450212 -0.1
 vertex -0.002646930551 0.03160416719 -0.1
 vertex -0.01203805012 0.031083168 -0.1
 endloop
 endfacet
 facet normal 0 0 -1
 outer loop 
 vertex -0.00740299097 0.04030450212 -0.1
 vertex -0.0140866793 0.04797463357 -0.1
 vertex -0.007115649651 0.04949108536 -0.1
 endloop
 endfacet
 facet normal 0 -0 -1
 outer loop 
 vertex -0.01514381176 0.04000394558 -0.1
 vertex -0.0140866793 0.04797463357 -0.1
 vertex -0.00740299097 0.04030450212 -0.1
 endloop
 endfacet
 facet normal 0 0 -1
 outer loop 
 vertex -0.00740299097 0.04030450212 -0.1
 vertex -0.01203805012 0.031083168 -0.1
 vertex -0.01514381176 0.04000394558 -0.1
 endloop
 endfacet
 facet normal 0 0 -1
 outer loop 
 vertex -0.01514381176 0.04000394558 -0.1
 vertex -0.02077079402 0.04548157996 -0.1
 vertex -0.0140866793 0.04797463357 -0.1
 endloop
 endfacet
 facet normal 0 0 -1
 outer loop 
 vertex -0.01514381176 0.04000394558 -0.1
 vertex -0.02067648317 0.03511059711 -0.1
 vertex -0.02077079402 0.04548157996 -0.1
 endloop
 endfacet
 facet normal 0 0 -1
 outer loop 
 vertex -0.02067648317 0.03511059711 -0.1
 vertex -0.02703207597 0.04206265409 -0.1
 vertex -0.02077079402 0.04548157996 -0.1
 endloop
 endfacet
 facet normal 0 0 -1
 outer loop 
 vertex -0.01203805012 0.031083168 -0.1
 vertex -0.02067648317 0.03511059711 -0.1
 vertex -0.01514381176 0.04000394558 -0.1
 endloop
 endfacet
 facet normal 0 0 -1
 outer loop 
 vertex -0.01203805012 0.031083168 -0.1
 vertex -0.02198146602 0.02566981837 -0.1
 vertex -0.02067648317 0.03511059711 -0.1
 endloop
 endfacet
 facet normal 0 0 -1
 outer loop 
 vertex -0.02067648317 0.03511059711 -0.1
 vertex -0.02198146602 0.02566981837 -0.1
 vertex -0.0278575442 0.03229422199 -0.1
 endloop
 endfacet
 facet normal 0 0 -1
 outer loop 
 vertex -0.02198146602 0.02566981837 -0.1
 vertex -0.03247804282 0.02622914813 -0.1
 vertex -0.0278575442 0.03229422199 -0.1
 endloop
 endfacet
 facet normal 0 0 -1
 outer loop 
 vertex -0.02067648317 0.03511059711 -0.1
 vertex -0.0278575442 0.03229422199 -0.1
 vertex -0.02703207597 0.04206265409 -0.1
 endloop
 endfacet
 facet normal 0 0 -1
 outer loop 
 vertex -0.0278575442 0.03229422199 -0.1
 vertex -0.03274306377 0.03778745526 -0.1
 vertex -0.02703207597 0.04206265409 -0.1
 endloop
 endfacet
 facet normal 0 0 -1
 outer loop 
 vertex -0.0278575442 0.03229422199 -0.1
 vertex -0.03778749808 0.03274301435 -0.1
 vertex -0.03274306377 0.03778745526 -0.1
 endloop
 endfacet
 facet normal 0 0 -1
 outer loop 
 vertex -0.03247804282 0.02622914813 -0.1
 vertex -0.03778749808 0.03274301435 -0.1
 vertex -0.0278575442 0.03229422199 -0.1
 endloop
 endfacet
 facet normal 0 0 -1
 outer loop 
 vertex -0.03247804282 0.02622914813 -0.1
 vertex -0.04206268941 0.02703202101 -0.1
 vertex -0.03778749808 0.03274301435 -0.1
 endloop
 endfacet
 facet normal 0 0 -1
 outer loop 
 vertex 0.04206268946 0.02703202093 -0.1
 vertex 0.03843324381 0.02331848127 -0.1
 vertex 0.03778749814 0.03274301428 -0.1
 endloop
 endfacet
 facet normal 0 0 -1
 outer loop 
 vertex 0.03778749814 0.03274301428 -0.1
 vertex 0.03151199884 0.02502684681 -0.1
 vertex 0.02828272298 0.03234749966 -0.1
 endloop
 endfacet
 facet normal 0 -0 -1
 outer loop 
 vertex 0.03151199884 0.02502684681 -0.1
 vertex 0.03778749814 0.03274301428 -0.1
 vertex 0.03843324381 0.02331848127 -0.1
 endloop
 endfacet
 facet normal 0 0 -1
 outer loop 
 vertex 0.03778749814 0.03274301428 -0.1
 vertex 0.02828272298 0.03234749966 -0.1
 vertex 0.03274306359 0.03778745542 -0.1
 endloop
 endfacet
 facet normal 0 0 -1
 outer loop 
 vertex 0.04548160719 0.0207707344 -0.1
 vertex 0.03843324381 0.02331848127 -0.1
 vertex 0.04206268946 0.02703202093 -0.1
 endloop
 endfacet
 facet normal -0 0 -1
 outer loop 
 vertex 0.03151199884 0.02502684681 -0.1
 vertex 0.03592877266 0.01666110655 -0.1
 vertex 0.02633291532 0.01608405623 -0.1
 endloop
 endfacet
 facet normal 0 0 -1
 outer loop 
 vertex 0.03592877266 0.01666110655 -0.1
 vertex 0.03151199884 0.02502684681 -0.1
 vertex 0.03843324381 0.02331848127 -0.1
 endloop
 endfacet
 facet normal 0 0 -1
 outer loop 
 vertex 0.03274306359 0.03778745542 -0.1
 vertex 0.02828272298 0.03234749966 -0.1
 vertex 0.02703207577 0.04206265422 -0.1
 endloop
 endfacet
 facet normal 0 0 -1
 outer loop 
 vertex 0.0314987076 -0.02743057352 -0.1
 vertex 0.04206268941 -0.02703202101 -0.1
 vertex 0.03778749808 -0.03274301435 -0.1
 endloop
 endfacet
 facet normal 0 0 -1
 outer loop 
 vertex 0.03778749808 -0.03274301435 -0.1
 vertex 0.03274306377 -0.03778745526 -0.1
 vertex 0.0314987076 -0.02743057352 -0.1
 endloop
 endfacet
 facet normal 0 0 -1
 outer loop 
 vertex 0.04206268941 -0.02703202101 -0.1
 vertex 0.0314987076 -0.02743057352 -0.1
 vertex 0.03697255999 -0.01975290497 -0.1
 endloop
 endfacet
 facet normal -0 0 -1
 outer loop 
 vertex 0.03697255999 -0.01975290497 -0.1
 vertex 0.04548160711 -0.02077073457 -0.1
 vertex 0.04206268941 -0.02703202101 -0.1
 endloop
 endfacet
 facet normal 0 -0 -1
 outer loop 
 vertex 0.02628071601 -0.03350682773 -0.1
 vertex 0.0314987076 -0.02743057352 -0.1
 vertex 0.03274306377 -0.03778745526 -0.1
 endloop
 endfacet
 facet normal 0 0 -1
 outer loop 
 vertex 0.02748457664 -0.01975923643 -0.1
 vertex 0.03697255999 -0.01975290497 -0.1
 vertex 0.0314987076 -0.02743057352 -0.1
 endloop
 endfacet
 facet normal -0 0 -1
 outer loop 
 vertex 0.02628071601 -0.03350682773 -0.1
 vertex 0.03274306377 -0.03778745526 -0.1
 vertex 0.02703207597 -0.04206265409 -0.1
 endloop
 endfacet
 facet normal -0 0 -1
 outer loop 
 vertex 0.040026757 -0.01138508955 -0.1
 vertex 0.04797465201 -0.01408661651 -0.1
 vertex 0.04548160711 -0.02077073457 -0.1
 endloop
 endfacet
 facet normal 0 -0 -1
 outer loop 
 vertex 0.03697255999 -0.01975290497 -0.1
 vertex 0.040026757 -0.01138508955 -0.1
 vertex 0.04548160711 -0.02077073457 -0.1
 endloop
 endfacet
 facet normal 0 0 -1
 outer loop 
 vertex 0.040026757 -0.01138508955 -0.1
 vertex 0.04944154131 -0.007452113321 -0.1
 vertex 0.04797465201 -0.01408661651 -0.1
 endloop
 endfacet
 facet normal 0 0 -1
 outer loop 
 vertex 0.040026757 -0.01138508955 -0.1
 vertex 0.03697255999 -0.01975290497 -0.1
 vertex 0.03071404492 -0.01185018353 -0.1
 endloop
 endfacet
 facet normal -0 0 -1
 outer loop 
 vertex 0.03287648187 -0.002792430227 -0.1
 vertex 0.040026757 -0.01138508955 -0.1
 vertex 0.03071404492 -0.01185018353 -0.1
 endloop
 endfacet
 facet normal -0 0 -1
 outer loop 
 vertex 0.03287648187 -0.002792430227 -0.1
 vertex 0.04263168512 -0.003798105901 -0.1
 vertex 0.040026757 -0.01138508955 -0.1
 endloop
 endfacet
 facet normal 0 -0 -1
 outer loop 
 vertex 0.040026757 -0.01138508955 -0.1
 vertex 0.04263168512 -0.003798105901 -0.1
 vertex 0.04944154131 -0.007452113321 -0.1
 endloop
 endfacet
 facet normal 0 -0 -1
 outer loop 
 vertex 0.02748457664 -0.01975923643 -0.1
 vertex 0.03071404492 -0.01185018353 -0.1
 vertex 0.03697255999 -0.01975290497 -0.1
 endloop
 endfacet
 facet normal 0 0 -1
 outer loop 
 vertex 0.03287648187 -0.002792430227 -0.1
 vertex 0.03150183038 0.007767935773 -0.1
 vertex 0.04052374518 0.003440701804 -0.1
 endloop
 endfacet
 facet normal 0 -0 -1
 outer loop 
 vertex 0.03287648187 -0.002792430227 -0.1
 vertex 0.04052374518 0.003440701804 -0.1
 vertex 0.04263168512 -0.003798105901 -0.1
 endloop
 endfacet
 facet normal 0 0 -1
 outer loop 
 vertex 0.04052374518 0.003440701804 -0.1
 vertex 0.03150183038 0.007767935773 -0.1
 vertex 0.04133580004 0.01099084325 -0.1
 endloop
 endfacet
 facet normal -0 0 -1
 outer loop 
 vertex 0.04133580004 0.01099084325 -0.1
 vertex 0.04944154132 0.00745211327 -0.1
 vertex 0.04052374518 0.003440701804 -0.1
 endloop
 endfacet
 facet normal 0 0 -1
 outer loop 
 vertex 0.04944154132 0.00745211327 -0.1
 vertex 0.05 0 -0.1
 vertex 0.04052374518 0.003440701804 -0.1
 endloop
 endfacet
 facet normal -0 0 -1
 outer loop 
 vertex 0.04052374518 0.003440701804 -0.1
 vertex 0.05 0 -0.1
 vertex 0.04263168512 -0.003798105901 -0.1
 endloop
 endfacet
 facet normal 0 0 -1
 outer loop 
 vertex 0.03592877266 0.01666110655 -0.1
 vertex 0.03150183038 0.007767935773 -0.1
 vertex 0.02633291532 0.01608405623 -0.1
 endloop
 endfacet
 facet normal 0 -0 -1
 outer loop 
 vertex 0.03150183038 0.007767935773 -0.1
 vertex 0.03592877266 0.01666110655 -0.1
 vertex 0.04133580004 0.01099084325 -0.1
 endloop
 endfacet
 facet normal 0 0 -1
 outer loop 
 vertex 0.04133580004 0.01099084325 -0.1
 vertex 0.03592877266 0.01666110655 -0.1
 vertex 0.04548160719 0.0207707344 -0.1
 endloop
 endfacet
 facet normal 0 0 -1
 outer loop 
 vertex 0.04797465202 0.01408661647 -0.1
 vertex 0.04133580004 0.01099084325 -0.1
 vertex 0.04548160719 0.0207707344 -0.1
 endloop
 endfacet
 facet normal 0 0 -1
 outer loop 
 vertex 0.04944154132 0.00745211327 -0.1
 vertex 0.04133580004 0.01099084325 -0.1
 vertex 0.04797465202 0.01408661647 -0.1
 endloop
 endfacet
 facet normal -0 0 -1
 outer loop 
 vertex 0.03843324381 0.02331848127 -0.1
 vertex 0.04548160719 0.0207707344 -0.1
 vertex 0.03592877266 0.01666110655 -0.1
 endloop
 endfacet
 facet normal 0 0 -1
 outer loop 
 vertex 0.05 0 -0.1
 vertex 0.04944154131 -0.007452113321 -0.1
 vertex 0.04263168512 -0.003798105901 -0.1
 endloop
 endfacet
endsolid PRO2STL version 1.0
