<?xml version="1.0" encoding="us-ascii" standalone="no"?><svg xmlns="http://www.w3.org/2000/svg" xmlns:xlink="http://www.w3.org/1999/xlink" contentStyleType="text/css" height="617px" preserveAspectRatio="none" style="width:740px;height:617px;background:#FFFFFF;" version="1.1" viewBox="0 0 740 617" width="740px" zoomAndPan="magnify"><defs/><g><rect fill="#F1F1F1" height="22.2969" rx="12.5" ry="12.5" style="stroke:#181818;stroke-width:1.5;" width="126" x="10" y="296.7109"/><text fill="#000000" font-family="monospace" font-size="14" lengthAdjust="spacing" textLength="120" x="13" y="312.7061">geometricVofExt</text><rect fill="#80BFFF" height="22.2969" rx="12.5" ry="12.5" style="stroke:#181818;stroke-width:1.5;" width="30" x="170" y="25.1484"/><text fill="#000000" font-family="monospace" font-size="14" lengthAdjust="spacing" textLength="24" x="173" y="41.1436">src</text><rect fill="#B3D9FF" height="22.2969" rx="12.5" ry="12.5" style="stroke:#181818;stroke-width:1.5;" width="62" x="234" y="12"/><text fill="#000000" font-family="monospace" font-size="14" lengthAdjust="spacing" textLength="56" x="237" y="27.9951">SimPLIC</text><path d="M200,36.2969 L210,36.2969 C225,36.2969 209,23.1484 224,23.1484 L234,23.1484 " fill="none" style="stroke:#181818;stroke-width:1.0;"/><rect fill="#B3D9FF" height="22.2969" rx="12.5" ry="12.5" style="stroke:#181818;stroke-width:1.5;" width="62" x="234" y="38.2969"/><text fill="#000000" font-family="monospace" font-size="14" lengthAdjust="spacing" textLength="56" x="237" y="54.292">CGALVof</text><path d="M200,36.2969 L210,36.2969 C225,36.2969 209,49.4453 224,49.4453 L234,49.4453 " fill="none" style="stroke:#181818;stroke-width:1.0;"/><path d="M136,307.8594 L146,307.8594 C161,307.8594 145,36.2969 160,36.2969 L170,36.2969 " fill="none" style="stroke:#181818;stroke-width:1.0;"/><rect fill="#FF884D" height="22.2969" rx="12.5" ry="12.5" style="stroke:#181818;stroke-width:1.5;" width="102" x="170" y="198.375"/><text fill="#000000" font-family="monospace" font-size="14" lengthAdjust="spacing" textLength="96" x="173" y="214.3701">applications</text><rect fill="#FFAA80" height="22.2969" rx="12.5" ry="12.5" style="stroke:#181818;stroke-width:1.5;" width="62" x="306" y="104.0391"/><text fill="#000000" font-family="monospace" font-size="14" lengthAdjust="spacing" textLength="56" x="309" y="120.0342">solvers</text><rect fill="#FFCCB3" height="22.2969" rx="12.5" ry="12.5" style="stroke:#181818;stroke-width:1.5;" width="110" x="402" y="64.5938"/><text fill="#000000" font-family="monospace" font-size="14" lengthAdjust="spacing" textLength="104" x="405" y="80.5889">interPlicFoam</text><path d="M368,115.1875 L378,115.1875 C393,115.1875 377,75.7422 392,75.7422 L402,75.7422 " fill="none" style="stroke:#181818;stroke-width:1.0;"/><rect fill="#FFCCB3" height="22.2969" rx="12.5" ry="12.5" style="stroke:#181818;stroke-width:1.5;" width="166" x="402" y="90.8906"/><text fill="#000000" font-family="monospace" font-size="14" lengthAdjust="spacing" textLength="160" x="405" y="106.8857">overInterPlicDyMFoam</text><path d="M368,115.1875 L378,115.1875 C393,115.1875 377,102.0391 392,102.0391 L402,102.0391 " fill="none" style="stroke:#181818;stroke-width:1.0;"/><rect fill="#FFCCB3" height="22.2969" rx="12.5" ry="12.5" style="stroke:#181818;stroke-width:1.5;" width="198" x="402" y="117.1875"/><text fill="#000000" font-family="monospace" font-size="14" lengthAdjust="spacing" textLength="192" x="405" y="133.1826">interPlicPhaseChangeFoam</text><path d="M368,115.1875 L378,115.1875 C393,115.1875 377,128.3359 392,128.3359 L402,128.3359 " fill="none" style="stroke:#181818;stroke-width:1.0;"/><rect fill="#FFCCB3" height="22.2969" rx="12.5" ry="12.5" style="stroke:#181818;stroke-width:1.5;" width="254" x="402" y="143.4844"/><text fill="#000000" font-family="monospace" font-size="14" lengthAdjust="spacing" textLength="248" x="405" y="159.4795">overInterPlicPhaseChangeDyMFoam</text><path d="M368,115.1875 L378,115.1875 C393,115.1875 377,154.6328 392,154.6328 L402,154.6328 " fill="none" style="stroke:#181818;stroke-width:1.0;"/><path d="M272,209.5234 L282,209.5234 C297,209.5234 281,115.1875 296,115.1875 L306,115.1875 " fill="none" style="stroke:#181818;stroke-width:1.0;"/><rect fill="#FFAA80" height="22.2969" rx="12.5" ry="12.5" style="stroke:#181818;stroke-width:1.5;" width="78" x="306" y="196.0781"/><text fill="#000000" font-family="monospace" font-size="14" lengthAdjust="spacing" textLength="72" x="309" y="212.0732">utilities</text><rect fill="#FFCCB3" height="22.2969" rx="12.5" ry="12.5" style="stroke:#181818;stroke-width:1.5;" width="94" x="418" y="169.7813"/><text fill="#000000" font-family="monospace" font-size="14" lengthAdjust="spacing" textLength="88" x="421" y="185.7764">setVofField</text><path d="M384,207.2266 L394,207.2266 C409,207.2266 393,180.9297 408,180.9297 L418,180.9297 " fill="none" style="stroke:#181818;stroke-width:1.0;"/><rect fill="#FFCCB3" height="22.2969" rx="12.5" ry="12.5" style="stroke:#181818;stroke-width:1.5;" width="126" x="418" y="196.0781"/><text fill="#000000" font-family="monospace" font-size="14" lengthAdjust="spacing" textLength="120" x="421" y="212.0732">setShapedFields</text><path d="M384,207.2266 L394,207.2266 C409,207.2266 393,207.2266 408,207.2266 L418,207.2266 " fill="none" style="stroke:#181818;stroke-width:1.0;"/><rect fill="#FFCCB3" height="22.2969" rx="12.5" ry="12.5" style="stroke:#181818;stroke-width:1.5;" width="118" x="418" y="222.375"/><text fill="#000000" font-family="monospace" font-size="14" lengthAdjust="spacing" textLength="112" x="421" y="238.3701">writeVtkSeries</text><path d="M384,207.2266 L394,207.2266 C409,207.2266 393,233.5234 408,233.5234 L418,233.5234 " fill="none" style="stroke:#181818;stroke-width:1.0;"/><path d="M272,209.5234 L282,209.5234 C297,209.5234 281,207.2266 296,207.2266 L306,207.2266 " fill="none" style="stroke:#181818;stroke-width:1.0;"/><text fill="#000000" font-family="monospace" font-size="14" lengthAdjust="spacing" textLength="32" x="309" y="306.4092">test</text><text fill="#000000" font-family="monospace" font-size="14" lengthAdjust="spacing" textLength="120" x="378" y="260.667">createIcosphere</text><path d="M341,301.5625 L351,301.5625 C366,301.5625 350,255.8203 365,255.8203 L375,255.8203 " fill="none" style="stroke:#181818;stroke-width:1.0;"/><text fill="#000000" font-family="monospace" font-size="14" lengthAdjust="spacing" textLength="232" x="378" y="278.9639">calcSurfaceMeshNonUniformFlow</text><path d="M341,301.5625 L351,301.5625 C366,301.5625 350,274.1172 365,274.1172 L375,274.1172 " fill="none" style="stroke:#181818;stroke-width:1.0;"/><text fill="#000000" font-family="monospace" font-size="14" lengthAdjust="spacing" textLength="176" x="378" y="297.2607">plicVofOrientationFoam</text><path d="M341,301.5625 L351,301.5625 C366,301.5625 350,292.4141 365,292.4141 L375,292.4141 " fill="none" style="stroke:#181818;stroke-width:1.0;"/><text fill="#000000" font-family="monospace" font-size="14" lengthAdjust="spacing" textLength="160" x="378" y="315.5576">plicVofAdvectionFoam</text><path d="M341,301.5625 L351,301.5625 C366,301.5625 350,310.7109 365,310.7109 L375,310.7109 " fill="none" style="stroke:#181818;stroke-width:1.0;"/><text fill="#000000" font-family="monospace" font-size="14" lengthAdjust="spacing" textLength="192" x="378" y="333.8545">isoAdvectorAdvectionFoam</text><path d="M341,301.5625 L351,301.5625 C366,301.5625 350,329.0078 365,329.0078 L375,329.0078 " fill="none" style="stroke:#181818;stroke-width:1.0;"/><text fill="#000000" font-family="monospace" font-size="14" lengthAdjust="spacing" textLength="176" x="378" y="352.1514">calcVofAdvectionErrors</text><path d="M341,301.5625 L351,301.5625 C366,301.5625 350,347.3047 365,347.3047 L375,347.3047 " fill="none" style="stroke:#181818;stroke-width:1.0;"/><path d="M272,209.5234 L282,209.5234 C297,209.5234 281,301.5625 296,301.5625 L306,301.5625 " fill="none" style="stroke:#181818;stroke-width:1.0;"/><path d="M136,307.8594 L146,307.8594 C161,307.8594 145,209.5234 160,209.5234 L170,209.5234 " fill="none" style="stroke:#181818;stroke-width:1.0;"/><rect fill="#66FF99" height="22.2969" rx="12.5" ry="12.5" style="stroke:#181818;stroke-width:1.5;" width="78" x="170" y="469.9375"/><text fill="#000000" font-family="monospace" font-size="14" lengthAdjust="spacing" textLength="72" x="173" y="485.9326">tutorials</text><rect fill="#99FFBB" height="22.2969" rx="12.5" ry="12.5" style="stroke:#181818;stroke-width:1.5;" width="62" x="282" y="384.75"/><text fill="#000000" font-family="monospace" font-size="14" lengthAdjust="spacing" textLength="56" x="285" y="400.7451">solvers</text><rect fill="#D6F5D6" height="22.2969" rx="12.5" ry="12.5" style="stroke:#181818;stroke-width:1.5;" width="110" x="378" y="358.4531"/><text fill="#000000" font-family="monospace" font-size="14" lengthAdjust="spacing" textLength="104" x="381" y="374.4482">interPlicFoam</text><path d="M344,395.8984 L354,395.8984 C369,395.8984 353,369.6016 368,369.6016 L378,369.6016 " fill="none" style="stroke:#181818;stroke-width:1.0;"/><rect fill="#D6F5D6" height="22.2969" rx="12.5" ry="12.5" style="stroke:#181818;stroke-width:1.5;" width="166" x="378" y="384.75"/><text fill="#000000" font-family="monospace" font-size="14" lengthAdjust="spacing" textLength="160" x="381" y="400.7451">overInterPlicDyMFoam</text><path d="M344,395.8984 L354,395.8984 C369,395.8984 353,395.8984 368,395.8984 L378,395.8984 " fill="none" style="stroke:#181818;stroke-width:1.0;"/><rect fill="#D6F5D6" height="22.2969" rx="12.5" ry="12.5" style="stroke:#181818;stroke-width:1.5;" width="254" x="378" y="411.0469"/><text fill="#000000" font-family="monospace" font-size="14" lengthAdjust="spacing" textLength="248" x="381" y="427.042">overInterPlicPhaseChangeDyMFoam</text><path d="M344,395.8984 L354,395.8984 C369,395.8984 353,422.1953 368,422.1953 L378,422.1953 " fill="none" style="stroke:#181818;stroke-width:1.0;"/><path d="M248,481.0859 L258,481.0859 C273,481.0859 257,395.8984 272,395.8984 L282,395.8984 " fill="none" style="stroke:#181818;stroke-width:1.0;"/><rect fill="#99FFBB" height="22.2969" rx="12.5" ry="12.5" style="stroke:#181818;stroke-width:1.5;" width="78" x="282" y="450.4922"/><text fill="#000000" font-family="monospace" font-size="14" lengthAdjust="spacing" textLength="72" x="285" y="466.4873">utilities</text><rect fill="#D6F5D6" height="22.2969" rx="12.5" ry="12.5" style="stroke:#181818;stroke-width:1.5;" width="94" x="394" y="437.3438"/><text fill="#000000" font-family="monospace" font-size="14" lengthAdjust="spacing" textLength="88" x="397" y="453.3389">setVofField</text><path d="M360,461.6406 L370,461.6406 C385,461.6406 369,448.4922 384,448.4922 L394,448.4922 " fill="none" style="stroke:#181818;stroke-width:1.0;"/><rect fill="#D6F5D6" height="22.2969" rx="12.5" ry="12.5" style="stroke:#181818;stroke-width:1.5;" width="126" x="394" y="463.6406"/><text fill="#000000" font-family="monospace" font-size="14" lengthAdjust="spacing" textLength="120" x="397" y="479.6357">setShapedFields</text><path d="M360,461.6406 L370,461.6406 C385,461.6406 369,474.7891 384,474.7891 L394,474.7891 " fill="none" style="stroke:#181818;stroke-width:1.0;"/><path d="M248,481.0859 L258,481.0859 C273,481.0859 257,461.6406 272,461.6406 L282,461.6406 " fill="none" style="stroke:#181818;stroke-width:1.0;"/><rect fill="#99FFBB" height="22.2969" rx="12.5" ry="12.5" style="stroke:#181818;stroke-width:1.5;" width="206" x="282" y="489.9375"/><text fill="#000000" font-family="monospace" font-size="14" lengthAdjust="spacing" textLength="200" x="285" y="505.9326">verificationAndValidation</text><rect fill="#D6F5D6" height="22.2969" rx="12.5" ry="12.5" style="stroke:#181818;stroke-width:1.5;" width="206" x="522" y="489.9375"/><text fill="#000000" font-family="monospace" font-size="14" lengthAdjust="spacing" textLength="200" x="525" y="505.9326">axisymmetricHemispherical</text><path d="M488,501.0859 L498,501.0859 C513,501.0859 497,501.0859 512,501.0859 L522,501.0859 " fill="none" style="stroke:#181818;stroke-width:1.0;"/><path d="M248,481.0859 L258,481.0859 C273,481.0859 257,501.0859 272,501.0859 L282,501.0859 " fill="none" style="stroke:#181818;stroke-width:1.0;"/><text fill="#000000" font-family="monospace" font-size="14" lengthAdjust="spacing" textLength="32" x="285" y="564.8232">test</text><text fill="#000000" font-family="monospace" font-size="14" lengthAdjust="spacing" textLength="120" x="354" y="528.2295">createIcosphere</text><path d="M317,559.9766 L327,559.9766 C342,559.9766 326,523.3828 341,523.3828 L351,523.3828 " fill="none" style="stroke:#181818;stroke-width:1.0;"/><text fill="#000000" font-family="monospace" font-size="14" lengthAdjust="spacing" textLength="232" x="354" y="546.5264">calcSurfaceMeshNonUniformFlow</text><path d="M317,559.9766 L327,559.9766 C342,559.9766 326,541.6797 341,541.6797 L351,541.6797 " fill="none" style="stroke:#181818;stroke-width:1.0;"/><text fill="#000000" font-family="monospace" font-size="14" lengthAdjust="spacing" textLength="176" x="354" y="564.8232">plicVofOrientationFoam</text><path d="M317,559.9766 L327,559.9766 C342,559.9766 326,559.9766 341,559.9766 L351,559.9766 " fill="none" style="stroke:#181818;stroke-width:1.0;"/><text fill="#000000" font-family="monospace" font-size="14" lengthAdjust="spacing" textLength="160" x="354" y="583.1201">plicVofAdvectionFoam</text><path d="M317,559.9766 L327,559.9766 C342,559.9766 326,578.2734 341,578.2734 L351,578.2734 " fill="none" style="stroke:#181818;stroke-width:1.0;"/><text fill="#000000" font-family="monospace" font-size="14" lengthAdjust="spacing" textLength="192" x="354" y="601.417">isoAdvectorAdvectionFoam</text><path d="M317,559.9766 L327,559.9766 C342,559.9766 326,596.5703 341,596.5703 L351,596.5703 " fill="none" style="stroke:#181818;stroke-width:1.0;"/><path d="M248,481.0859 L258,481.0859 C273,481.0859 257,559.9766 272,559.9766 L282,559.9766 " fill="none" style="stroke:#181818;stroke-width:1.0;"/><path d="M136,307.8594 L146,307.8594 C161,307.8594 145,481.0859 160,481.0859 L170,481.0859 " fill="none" style="stroke:#181818;stroke-width:1.0;"/><!--SRC=[bPPTRzem58Rl_IiiTjDgQaVv4Y1KbKBfns15esMNanCV9rOJ6zaEBPlwtsU7bF8Pibn4ii_xd7Fil79yfGrH9kQ2ncI6Ejei8hX4GbB0Vn6spvrK_8yKXaJTY0SY1c6mRr-Wql28lF4uYNznQa9SBvUpIHLmWIlfO4mevIB0LVIEK5QepqcWI9oLE0yKWCW6xhac_akWP29eJqPIuI-D1cEjLXf_NoAsbz0SvLejnZnlWoi6qWQhqyOww4K9v17DiiSOssdn6EPLQMiBAyH1WrKsEQc8278PnfhD6jrfiGX8IBEyssGHqlUzQaQ-eywtp63eAowL0f0n6CNzgMGtRwPKGb_Tj5P-gOGx7RS5bvTsparEU3mUtlVIm6g3Lj7URNTea-o9sY2PpIBk4yEbqAbYsVOArZAQWzAVy7hS2RXp-zZc64WIBsLxTTAckV_GzXUZ8_9Lsd58DFH25_sV2cjOVZ4B9eP7t738MQK6OxTmm26YEHrOrIGaCw2fKESeNnKtC3Kl4r2hkZl2trPeG9i3RRcmhu0OkFUbdeMWu535L4eYVv8eHdmOWGv_IF4iE9Cg7aJoDGzq1h6BVxITsfFEEINlGwmHNJe7luYUQxdKIbMOSSjPht6Zb5G7TjBjOs8dE8cMYlI8E-pnjN2UnRTaHnoUfyvrwsQpUyowbNc_LtT51wowMSvsoLbsG7G5dPA8qtHmiBpzv-b5l3oxxY3cgJDjXcX_ZLsJh-VBz_YEig35jxcZ3Zy073Bhjho0lp-GAx1tWEp2WSOH4UPvDCJEdfR15-ULSgLsNZrv2XCy00zVrF55jLqhjyjrt9iyOHS-HIUtu-6yWhLCb0-OScs_XPUuggVeWSm9_fa8msDeuySPY8V-zuy9V2FcNCdq8eCUfgDFGQDsTiqDjkULxGLFHwWFZ2IHiOGltHMcZP-V1cTDDBGcJaXWSuD0FVktCsfXOvD_]--></g></svg>