<?xml version="1.0" encoding="us-ascii" standalone="no"?><svg xmlns="http://www.w3.org/2000/svg" xmlns:xlink="http://www.w3.org/1999/xlink" contentStyleType="text/css" height="670px" preserveAspectRatio="none" style="width:740px;height:670px;background:#FFFFFF;" version="1.1" viewBox="0 0 740 670" width="740px" zoomAndPan="magnify"><defs/><g><rect fill="#F1F1F1" height="22.2969" rx="12.5" ry="12.5" style="stroke:#181818;stroke-width:1.5;" width="126" x="10" y="323.0078"/><text fill="#000000" font-family="monospace" font-size="14" lengthAdjust="spacing" textLength="120" x="13" y="339.0029">geometricVofExt</text><rect fill="#80BFFF" height="22.2969" rx="12.5" ry="12.5" style="stroke:#181818;stroke-width:1.5;" width="30" x="170" y="25.1484"/><text fill="#000000" font-family="monospace" font-size="14" lengthAdjust="spacing" textLength="24" x="173" y="41.1436">src</text><rect fill="#B3D9FF" height="22.2969" rx="12.5" ry="12.5" style="stroke:#181818;stroke-width:1.5;" width="62" x="234" y="12"/><text fill="#000000" font-family="monospace" font-size="14" lengthAdjust="spacing" textLength="56" x="237" y="27.9951">SimPLIC</text><path d="M200,36.2969 L210,36.2969 C225,36.2969 209,23.1484 224,23.1484 L234,23.1484 " fill="none" style="stroke:#181818;stroke-width:1.0;"/><rect fill="#B3D9FF" height="22.2969" rx="12.5" ry="12.5" style="stroke:#181818;stroke-width:1.5;" width="62" x="234" y="38.2969"/><text fill="#000000" font-family="monospace" font-size="14" lengthAdjust="spacing" textLength="56" x="237" y="54.292">CGALVof</text><path d="M200,36.2969 L210,36.2969 C225,36.2969 209,49.4453 224,49.4453 L234,49.4453 " fill="none" style="stroke:#181818;stroke-width:1.0;"/><path d="M136,334.1563 L146,334.1563 C161,334.1563 145,36.2969 160,36.2969 L170,36.2969 " fill="none" style="stroke:#181818;stroke-width:1.0;"/><rect fill="#FF884D" height="22.2969" rx="12.5" ry="12.5" style="stroke:#181818;stroke-width:1.5;" width="102" x="170" y="211.5234"/><text fill="#000000" font-family="monospace" font-size="14" lengthAdjust="spacing" textLength="96" x="173" y="227.5186">applications</text><rect fill="#FFAA80" height="22.2969" rx="12.5" ry="12.5" style="stroke:#181818;stroke-width:1.5;" width="62" x="306" y="117.1875"/><text fill="#000000" font-family="monospace" font-size="14" lengthAdjust="spacing" textLength="56" x="309" y="133.1826">solvers</text><rect fill="#FFCCB3" height="22.2969" rx="12.5" ry="12.5" style="stroke:#181818;stroke-width:1.5;" width="110" x="402" y="64.5938"/><text fill="#000000" font-family="monospace" font-size="14" lengthAdjust="spacing" textLength="104" x="405" y="80.5889">interPlicFoam</text><path d="M368,128.3359 L378,128.3359 C393,128.3359 377,75.7422 392,75.7422 L402,75.7422 " fill="none" style="stroke:#181818;stroke-width:1.0;"/><rect fill="#FFCCB3" height="22.2969" rx="12.5" ry="12.5" style="stroke:#181818;stroke-width:1.5;" width="166" x="402" y="90.8906"/><text fill="#000000" font-family="monospace" font-size="14" lengthAdjust="spacing" textLength="160" x="405" y="106.8857">overInterPlicDyMFoam</text><path d="M368,128.3359 L378,128.3359 C393,128.3359 377,102.0391 392,102.0391 L402,102.0391 " fill="none" style="stroke:#181818;stroke-width:1.0;"/><rect fill="#FFCCB3" height="22.2969" rx="12.5" ry="12.5" style="stroke:#181818;stroke-width:1.5;" width="198" x="402" y="117.1875"/><text fill="#000000" font-family="monospace" font-size="14" lengthAdjust="spacing" textLength="192" x="405" y="133.1826">interPlicPhaseChangeFoam</text><path d="M368,128.3359 L378,128.3359 C393,128.3359 377,128.3359 392,128.3359 L402,128.3359 " fill="none" style="stroke:#181818;stroke-width:1.0;"/><rect fill="#FFCCB3" height="22.2969" rx="12.5" ry="12.5" style="stroke:#181818;stroke-width:1.5;" width="254" x="402" y="143.4844"/><text fill="#000000" font-family="monospace" font-size="14" lengthAdjust="spacing" textLength="248" x="405" y="159.4795">overInterPlicPhaseChangeDyMFoam</text><path d="M368,128.3359 L378,128.3359 C393,128.3359 377,154.6328 392,154.6328 L402,154.6328 " fill="none" style="stroke:#181818;stroke-width:1.0;"/><rect fill="#FFCCB3" height="22.2969" rx="12.5" ry="12.5" style="stroke:#181818;stroke-width:1.5;" width="102" x="402" y="169.7813"/><text fill="#000000" font-family="monospace" font-size="14" lengthAdjust="spacing" textLength="96" x="405" y="185.7764">wavePlicFoam</text><path d="M368,128.3359 L378,128.3359 C393,128.3359 377,180.9297 392,180.9297 L402,180.9297 " fill="none" style="stroke:#181818;stroke-width:1.0;"/><path d="M272,222.6719 L282,222.6719 C297,222.6719 281,128.3359 296,128.3359 L306,128.3359 " fill="none" style="stroke:#181818;stroke-width:1.0;"/><rect fill="#FFAA80" height="22.2969" rx="12.5" ry="12.5" style="stroke:#181818;stroke-width:1.5;" width="78" x="306" y="222.375"/><text fill="#000000" font-family="monospace" font-size="14" lengthAdjust="spacing" textLength="72" x="309" y="238.3701">utilities</text><rect fill="#FFCCB3" height="22.2969" rx="12.5" ry="12.5" style="stroke:#181818;stroke-width:1.5;" width="94" x="418" y="196.0781"/><text fill="#000000" font-family="monospace" font-size="14" lengthAdjust="spacing" textLength="88" x="421" y="212.0732">setVofField</text><path d="M384,233.5234 L394,233.5234 C409,233.5234 393,207.2266 408,207.2266 L418,207.2266 " fill="none" style="stroke:#181818;stroke-width:1.0;"/><rect fill="#FFCCB3" height="22.2969" rx="12.5" ry="12.5" style="stroke:#181818;stroke-width:1.5;" width="126" x="418" y="222.375"/><text fill="#000000" font-family="monospace" font-size="14" lengthAdjust="spacing" textLength="120" x="421" y="238.3701">setShapedFields</text><path d="M384,233.5234 L394,233.5234 C409,233.5234 393,233.5234 408,233.5234 L418,233.5234 " fill="none" style="stroke:#181818;stroke-width:1.0;"/><rect fill="#FFCCB3" height="22.2969" rx="12.5" ry="12.5" style="stroke:#181818;stroke-width:1.5;" width="118" x="418" y="248.6719"/><text fill="#000000" font-family="monospace" font-size="14" lengthAdjust="spacing" textLength="112" x="421" y="264.667">writeVtkSeries</text><path d="M384,233.5234 L394,233.5234 C409,233.5234 393,259.8203 408,259.8203 L418,259.8203 " fill="none" style="stroke:#181818;stroke-width:1.0;"/><path d="M272,222.6719 L282,222.6719 C297,222.6719 281,233.5234 296,233.5234 L306,233.5234 " fill="none" style="stroke:#181818;stroke-width:1.0;"/><text fill="#000000" font-family="monospace" font-size="14" lengthAdjust="spacing" textLength="32" x="309" y="332.7061">test</text><text fill="#000000" font-family="monospace" font-size="14" lengthAdjust="spacing" textLength="120" x="378" y="286.9639">createIcosphere</text><path d="M341,327.8594 L351,327.8594 C366,327.8594 350,282.1172 365,282.1172 L375,282.1172 " fill="none" style="stroke:#181818;stroke-width:1.0;"/><text fill="#000000" font-family="monospace" font-size="14" lengthAdjust="spacing" textLength="232" x="378" y="305.2607">calcSurfaceMeshNonUniformFlow</text><path d="M341,327.8594 L351,327.8594 C366,327.8594 350,300.4141 365,300.4141 L375,300.4141 " fill="none" style="stroke:#181818;stroke-width:1.0;"/><text fill="#000000" font-family="monospace" font-size="14" lengthAdjust="spacing" textLength="176" x="378" y="323.5576">plicVofOrientationFoam</text><path d="M341,327.8594 L351,327.8594 C366,327.8594 350,318.7109 365,318.7109 L375,318.7109 " fill="none" style="stroke:#181818;stroke-width:1.0;"/><text fill="#000000" font-family="monospace" font-size="14" lengthAdjust="spacing" textLength="160" x="378" y="341.8545">plicVofAdvectionFoam</text><path d="M341,327.8594 L351,327.8594 C366,327.8594 350,337.0078 365,337.0078 L375,337.0078 " fill="none" style="stroke:#181818;stroke-width:1.0;"/><text fill="#000000" font-family="monospace" font-size="14" lengthAdjust="spacing" textLength="192" x="378" y="360.1514">isoAdvectorAdvectionFoam</text><path d="M341,327.8594 L351,327.8594 C366,327.8594 350,355.3047 365,355.3047 L375,355.3047 " fill="none" style="stroke:#181818;stroke-width:1.0;"/><text fill="#000000" font-family="monospace" font-size="14" lengthAdjust="spacing" textLength="176" x="378" y="378.4482">calcVofAdvectionErrors</text><path d="M341,327.8594 L351,327.8594 C366,327.8594 350,373.6016 365,373.6016 L375,373.6016 " fill="none" style="stroke:#181818;stroke-width:1.0;"/><path d="M272,222.6719 L282,222.6719 C297,222.6719 281,327.8594 296,327.8594 L306,327.8594 " fill="none" style="stroke:#181818;stroke-width:1.0;"/><path d="M136,334.1563 L146,334.1563 C161,334.1563 145,222.6719 160,222.6719 L170,222.6719 " fill="none" style="stroke:#181818;stroke-width:1.0;"/><rect fill="#66FF99" height="22.2969" rx="12.5" ry="12.5" style="stroke:#181818;stroke-width:1.5;" width="78" x="170" y="509.3828"/><text fill="#000000" font-family="monospace" font-size="14" lengthAdjust="spacing" textLength="72" x="173" y="525.3779">tutorials</text><rect fill="#99FFBB" height="22.2969" rx="12.5" ry="12.5" style="stroke:#181818;stroke-width:1.5;" width="62" x="282" y="424.1953"/><text fill="#000000" font-family="monospace" font-size="14" lengthAdjust="spacing" textLength="56" x="285" y="440.1904">solvers</text><rect fill="#D6F5D6" height="22.2969" rx="12.5" ry="12.5" style="stroke:#181818;stroke-width:1.5;" width="110" x="378" y="384.75"/><text fill="#000000" font-family="monospace" font-size="14" lengthAdjust="spacing" textLength="104" x="381" y="400.7451">interPlicFoam</text><path d="M344,435.3438 L354,435.3438 C369,435.3438 353,395.8984 368,395.8984 L378,395.8984 " fill="none" style="stroke:#181818;stroke-width:1.0;"/><rect fill="#D6F5D6" height="22.2969" rx="12.5" ry="12.5" style="stroke:#181818;stroke-width:1.5;" width="166" x="378" y="411.0469"/><text fill="#000000" font-family="monospace" font-size="14" lengthAdjust="spacing" textLength="160" x="381" y="427.042">overInterPlicDyMFoam</text><path d="M344,435.3438 L354,435.3438 C369,435.3438 353,422.1953 368,422.1953 L378,422.1953 " fill="none" style="stroke:#181818;stroke-width:1.0;"/><rect fill="#D6F5D6" height="22.2969" rx="12.5" ry="12.5" style="stroke:#181818;stroke-width:1.5;" width="254" x="378" y="437.3438"/><text fill="#000000" font-family="monospace" font-size="14" lengthAdjust="spacing" textLength="248" x="381" y="453.3389">overInterPlicPhaseChangeDyMFoam</text><path d="M344,435.3438 L354,435.3438 C369,435.3438 353,448.4922 368,448.4922 L378,448.4922 " fill="none" style="stroke:#181818;stroke-width:1.0;"/><rect fill="#D6F5D6" height="22.2969" rx="12.5" ry="12.5" style="stroke:#181818;stroke-width:1.5;" width="102" x="378" y="463.6406"/><text fill="#000000" font-family="monospace" font-size="14" lengthAdjust="spacing" textLength="96" x="381" y="479.6357">wavePlicFoam</text><path d="M344,435.3438 L354,435.3438 C369,435.3438 353,474.7891 368,474.7891 L378,474.7891 " fill="none" style="stroke:#181818;stroke-width:1.0;"/><path d="M248,520.5313 L258,520.5313 C273,520.5313 257,435.3438 272,435.3438 L282,435.3438 " fill="none" style="stroke:#181818;stroke-width:1.0;"/><rect fill="#99FFBB" height="22.2969" rx="12.5" ry="12.5" style="stroke:#181818;stroke-width:1.5;" width="78" x="282" y="503.0859"/><text fill="#000000" font-family="monospace" font-size="14" lengthAdjust="spacing" textLength="72" x="285" y="519.0811">utilities</text><rect fill="#D6F5D6" height="22.2969" rx="12.5" ry="12.5" style="stroke:#181818;stroke-width:1.5;" width="94" x="394" y="489.9375"/><text fill="#000000" font-family="monospace" font-size="14" lengthAdjust="spacing" textLength="88" x="397" y="505.9326">setVofField</text><path d="M360,514.2344 L370,514.2344 C385,514.2344 369,501.0859 384,501.0859 L394,501.0859 " fill="none" style="stroke:#181818;stroke-width:1.0;"/><rect fill="#D6F5D6" height="22.2969" rx="12.5" ry="12.5" style="stroke:#181818;stroke-width:1.5;" width="126" x="394" y="516.2344"/><text fill="#000000" font-family="monospace" font-size="14" lengthAdjust="spacing" textLength="120" x="397" y="532.2295">setShapedFields</text><path d="M360,514.2344 L370,514.2344 C385,514.2344 369,527.3828 384,527.3828 L394,527.3828 " fill="none" style="stroke:#181818;stroke-width:1.0;"/><path d="M248,520.5313 L258,520.5313 C273,520.5313 257,514.2344 272,514.2344 L282,514.2344 " fill="none" style="stroke:#181818;stroke-width:1.0;"/><rect fill="#99FFBB" height="22.2969" rx="12.5" ry="12.5" style="stroke:#181818;stroke-width:1.5;" width="206" x="282" y="542.5313"/><text fill="#000000" font-family="monospace" font-size="14" lengthAdjust="spacing" textLength="200" x="285" y="558.5264">verificationAndValidation</text><rect fill="#D6F5D6" height="22.2969" rx="12.5" ry="12.5" style="stroke:#181818;stroke-width:1.5;" width="206" x="522" y="542.5313"/><text fill="#000000" font-family="monospace" font-size="14" lengthAdjust="spacing" textLength="200" x="525" y="558.5264">axisymmetricHemispherical</text><path d="M488,553.6797 L498,553.6797 C513,553.6797 497,553.6797 512,553.6797 L522,553.6797 " fill="none" style="stroke:#181818;stroke-width:1.0;"/><path d="M248,520.5313 L258,520.5313 C273,520.5313 257,553.6797 272,553.6797 L282,553.6797 " fill="none" style="stroke:#181818;stroke-width:1.0;"/><text fill="#000000" font-family="monospace" font-size="14" lengthAdjust="spacing" textLength="32" x="285" y="617.417">test</text><text fill="#000000" font-family="monospace" font-size="14" lengthAdjust="spacing" textLength="120" x="354" y="580.8232">createIcosphere</text><path d="M317,612.5703 L327,612.5703 C342,612.5703 326,575.9766 341,575.9766 L351,575.9766 " fill="none" style="stroke:#181818;stroke-width:1.0;"/><text fill="#000000" font-family="monospace" font-size="14" lengthAdjust="spacing" textLength="232" x="354" y="599.1201">calcSurfaceMeshNonUniformFlow</text><path d="M317,612.5703 L327,612.5703 C342,612.5703 326,594.2734 341,594.2734 L351,594.2734 " fill="none" style="stroke:#181818;stroke-width:1.0;"/><text fill="#000000" font-family="monospace" font-size="14" lengthAdjust="spacing" textLength="176" x="354" y="617.417">plicVofOrientationFoam</text><path d="M317,612.5703 L327,612.5703 C342,612.5703 326,612.5703 341,612.5703 L351,612.5703 " fill="none" style="stroke:#181818;stroke-width:1.0;"/><text fill="#000000" font-family="monospace" font-size="14" lengthAdjust="spacing" textLength="160" x="354" y="635.7139">plicVofAdvectionFoam</text><path d="M317,612.5703 L327,612.5703 C342,612.5703 326,630.8672 341,630.8672 L351,630.8672 " fill="none" style="stroke:#181818;stroke-width:1.0;"/><text fill="#000000" font-family="monospace" font-size="14" lengthAdjust="spacing" textLength="192" x="354" y="654.0107">isoAdvectorAdvectionFoam</text><path d="M317,612.5703 L327,612.5703 C342,612.5703 326,649.1641 341,649.1641 L351,649.1641 " fill="none" style="stroke:#181818;stroke-width:1.0;"/><path d="M248,520.5313 L258,520.5313 C273,520.5313 257,612.5703 272,612.5703 L282,612.5703 " fill="none" style="stroke:#181818;stroke-width:1.0;"/><path d="M136,334.1563 L146,334.1563 C161,334.1563 145,520.5313 160,520.5313 L170,520.5313 " fill="none" style="stroke:#181818;stroke-width:1.0;"/><!--SRC=[bPPjRzem4CVV-rDOx4shgHtbIO1GLGgb3uCLZPQzd9pu7AmwDd8SMZRrkyyEAUKf8SiBfFZ-lxlpSUVuAZ94cv1B6f8vwaHcAU0IIKK1_qNOFdTAypzA6YAwWWSo16cmRtz09-OHUUDX7FxYrCnmlLnE5tN09QuaBsD2APS1hg9tXD90VKu2JS8qn7cW0MJwufvhuhy4MiMIzfHG6dzfD1XhjHBx-mgnkSpCKQxLOippjhXY86smEcriWfw88OzebZt6s5wAnp2lIbixM24E6goopIbDP93BCDPirkXUYaL0Gfhb_IIBaBxlLLFo7NM-fGs6lk9IAG0LWj7SdofsysPA9VJLBKVQBvLmf-DAS7bfrzpYX8VZuNqlCQmBjBRsRhj3w-I0rHh9V2wuJmnNCaeKgxJNSAJ40dJq2M_QdO2xRXzR7mD5mfNie4vPD_SVslvoT4I-TZkUaGXwCsVzdmWRsF5WhsG1HxPWLR7XWXiEESM8mDXA3pW8cXFEgYOpCWUQ2AEyn3GtC3Kl4z3hk7l2trPe838PQJcphu4OkFTLD9-1Xgo8YPG8Vn9hHdmOGJJxeUIpv4pfS23KQnxe-iXk_j5cQWz4rr1vLTyWkdG1VX4zZzHAgtHXncrdCyQDrafdLDBLCROBd8YL8Za9iqTXmvmt2Jko8uEGfyvjwXqmewUtjtIWfNVS7ExeVL56Gs-7itlXB3rjkf9EYU0qUSaCRp-WqJ9S7OHt4FAaVwq7SJZ6_YXi-ikVX3rbmK7OvOxEGGQGrTAxyW9Jy85SWRrGfBSND1P4ckVH4BicjWo-EA-KAxNpwidJBCO3yF157LzKsxLokrp7lSaJTkPJT78x7YugE5AnzW5J7jd_mejTr5FqG1O4_uobuI6qyUCSv4F_-yS2lf4BhbLoAq8Fqz6de54xk-O6srFDveAd8zG7Hc9XBE4hTnzgu-UdmLaJ3MshnoImla6Ydlrq6hsqjia_]--></g></svg>